<svg xmlns="http://www.w3.org/2000/svg" viewBox="0 0 750 500"><g id="freepik--background-complete--inject-2"><g><g><g><g><path d="M673.73379,328.7062h-180.7461c-3.2324,0-5.8623-2.6298-5.8623-5.8623V59.5705c0-3.2324,2.6299-5.8617,5.8623-5.8617h180.7461c3.2323,0,5.86221,2.6293,5.86221,5.8617V322.8439c0,3.2325-2.62991,5.8623-5.86221,5.8623ZM492.98769,53.9588c-3.09469,0-5.6123,2.5175-5.6123,5.6117V322.8439c0,3.0948,2.51761,5.6123,5.6123,5.6123h180.7461c3.0946,0,5.61221-2.5175,5.61221-5.6123V59.5705c0-3.0942-2.51761-5.6117-5.61221-5.6117h-180.7461Z" style="fill:#e0e0e0;"></path><path d="M465.30609,328.7062h-180.7466c-3.2324,0-5.8618-2.6298-5.8618-5.8623V59.5705c0-3.2324,2.6294-5.8617,5.8618-5.8617h180.7466c3.2324,0,5.8623,2.6293,5.8623,5.8617V322.8439c0,3.2325-2.6299,5.8623-5.8623,5.8623ZM284.5595,53.9588c-3.0942,0-5.6118,2.5175-5.6118,5.6117V322.8439c0,3.0948,2.5176,5.6123,5.6118,5.6123h180.7466c3.0947,0,5.6123-2.5175,5.6123-5.6123V59.5705c0-3.0942-2.5176-5.6117-5.6123-5.6117h-180.7466Z" style="fill:#e0e0e0;"></path></g><path d="M257.0123,328.7062H76.2658c-3.2324,0-5.8618-2.6298-5.8618-5.8623V59.5705c0-3.2324,2.6294-5.8617,5.8618-5.8617h180.7465c3.2324,0,5.8623,2.6293,5.8623,5.8617V322.8439c0,3.2325-2.6299,5.8623-5.8623,5.8623ZM76.2658,53.9588c-3.0942,0-5.6118,2.5175-5.6118,5.6117V322.8439c0,3.0948,2.5176,5.6123,5.6118,5.6123h180.7465c3.0948,0,5.6123-2.5175,5.6123-5.6123V59.5705c0-3.0942-2.5175-5.6117-5.6123-5.6117H76.2658Z" style="fill:#e0e0e0;"></path></g><rect y="389.7756" width="750" height=".1204" style="fill:#e0e0e0;"></rect></g><g><rect x="653.62639" y="419.1517" width="55.7291" height=".4206" style="fill:#ebebeb;"></rect><rect x="495.04359" y="423.7174" width="14.6268" height=".4206" style="fill:#ebebeb;"></rect><rect x="40.6445" y="406.3544" width="72.6745" height=".4207" style="fill:#ebebeb;"></rect><rect x="128.2991" y="406.3544" width="10.6555" height=".4207" style="fill:#ebebeb;"></rect><rect x="173.5856" y="413.4585" width="157.61289" height=".4206" style="fill:#ebebeb;"></rect></g></g><g><g><rect x="477.18259" y="217.0424" width="242.95129" height="172.8983" style="fill:#ebebeb;"></rect><rect x="478.90229" y="89.1536" width="240.40759" height="127.7376" style="fill:#e6e6e6;"></rect><rect x="717.17429" y="55.4424" width="2.938" height="34.7913" style="fill:#e6e6e6;"></rect><rect x="644.44839" y="55.4424" width="2.9379" height="34.7913" style="fill:#e6e6e6;"></rect><rect x="571.72239" y="55.4424" width="2.938" height="34.7913" style="fill:#e6e6e6;"></rect><rect x="519.05469" y="256.8024" width="171.8938" height="133.1275" style="fill:#e0e0e0;"></rect><path d="M682.7286,94.8352h14.4199c4.63802,0,8.4035,3.76548,8.4035,8.4035v14.4199c0,4.63802-3.76548,8.4035-8.4035,8.4035h-14.41991c-4.63802,0-8.4035-3.76548-8.4035-8.4035v-14.41989c0-4.63803,3.76549-8.40351,8.40351-8.40351Z" style="fill:#f0f0f0;"></path><path d="M670.33939,125.1655l2.3223-4.785c.1931-.7055,.8144-1.2095,1.5446-1.253h31.50771c.72739,.0448,1.34489,.5492,1.53379,1.253l2.3331,4.785c.1728,.9182-.2808,1.6743-1.0801,1.6743h-37.1461c-.7993,0-1.253-.7562-1.0153-1.6743Z" style="fill:#ebebeb;"></path><path d="M635.76399,94.8352h14.4199c4.63802,0,8.4035,3.76548,8.4035,8.4035v14.4199c0,4.63802-3.76548,8.4035-8.4035,8.4035h-14.4199c-4.63802,0-8.4035-3.76548-8.4035-8.4035v-14.4199c0-4.63802,3.76548-8.4035,8.4035-8.4035Z" style="fill:#f0f0f0;"></path><path d="M623.42879,125.1655l2.3223-4.785c.196-.7036,.8157-1.2062,1.5446-1.253h31.4537c.729,.0468,1.34861,.5494,1.54461,1.253l2.32229,4.785c.1729,.9182-.2808,1.6743-1.0801,1.6743h-37.1353c-.7993,0-1.2637-.7562-.9721-1.6743Z" style="fill:#ebebeb;"></path><rect x="580.39589" y="94.8352" width="31.2269" height="31.2269" rx="8.4035" ry="8.4035" style="fill:#f0f0f0;"></rect><path d="M576.41019,125.1655l2.3332-4.785c.1889-.7038,.8064-1.2082,1.5338-1.253h31.4537c.7302,.0435,1.3514,.5475,1.5446,1.253l2.3223,4.785c.2376,.9182-.2161,1.6743-1.0154,1.6743h-37.146c-.7993,0-1.23139-.7562-1.0262-1.6743Z" style="fill:#ebebeb;"></path><rect x="533.43139" y="94.8352" width="31.2269" height="31.2269" rx="8.4035" ry="8.4035" style="fill:#f0f0f0;"></rect><path d="M529.39169,125.1655l2.3331-4.785c.1889-.7038,.8064-1.2082,1.5338-1.253h31.4537c.7302,.0435,1.3515,.5475,1.5446,1.253l2.3223,4.785c.2376,.9182-.216,1.6743-1.0153,1.6743h-37.0921c-.7993,0-1.253-.7562-1.0801-1.6743Z" style="fill:#ebebeb;"></path><path d="M682.7286,171.4388h14.4199c4.63802,0,8.4035,3.76548,8.4035,8.4035v14.4199c0,4.63802-3.76548,8.4035-8.4035,8.4035h-14.41991c-4.63802,0-8.4035-3.76548-8.4035-8.4035v-14.41989c0-4.63803,3.76549-8.40351,8.40351-8.40351Z" style="fill:#f0f0f0;"></path><path d="M670.33939,201.78l2.3223-4.7958c.1941-.7032,.8161-1.2034,1.5446-1.2422h31.50771c.72559,.04,1.34389,.5407,1.53379,1.2422l2.3331,4.7958c.1728,.9073-.2808,1.6634-1.0801,1.6634h-37.1461c-.7993,0-1.253-.7993-1.0153-1.6634Z" style="fill:#ebebeb;"></path><rect x="627.36049" y="171.4388" width="31.2269" height="31.2269" rx="8.4035" ry="8.4035" style="fill:#f0f0f0;"></rect><path d="M623.42879,201.78l2.3223-4.7958c.197-.7013,.8174-1.2002,1.5446-1.2422h31.4537c.7272,.042,1.34761,.5409,1.54461,1.2422l2.32229,4.7958c.1729,.9073-.2808,1.6634-1.0801,1.6634h-37.1353c-.7993,0-1.2637-.7993-.9721-1.6634Z" style="fill:#ebebeb;"></path><rect x="580.39589" y="171.4388" width="31.2269" height="31.2269" rx="8.4035" ry="8.4035" style="fill:#f0f0f0;"></rect><path d="M576.41019,201.78l2.3332-4.7958c.1899-.7015,.8081-1.2022,1.5338-1.2422h31.4537c.7284,.0388,1.3505,.539,1.5446,1.2422l2.3223,4.7958c.2376,.9073-.2161,1.6634-1.0154,1.6634h-37.146c-.7993,0-1.23139-.7993-1.0262-1.6634Z" style="fill:#ebebeb;"></path><rect x="533.43139" y="171.4388" width="31.2269" height="31.2269" rx="8.4035" ry="8.4035" style="fill:#f0f0f0;"></rect><path d="M529.39169,201.78l2.3331-4.7958c.1899-.7015,.80821-1.2022,1.5338-1.2422h31.4537c.7285,.0388,1.3505,.539,1.5446,1.2422l2.3223,4.7958c.2376,.9073-.216,1.6634-1.0153,1.6634h-37.0921c-.7993,0-1.253-.7993-1.0801-1.6634Z" style="fill:#ebebeb;"></path><path d="M682.7286,133.2558h14.4199c4.63802,0,8.4035,3.76548,8.4035,8.4035v14.4199c0,4.63802-3.76548,8.4035-8.4035,8.4035h-14.41991c-4.63802,0-8.4035-3.76548-8.4035-8.4035v-14.41989c0-4.63803,3.76549-8.40351,8.40351-8.40351Z" style="fill:#f0f0f0;"></path><path d="M670.33939,163.597l2.3223-4.7959c.1941-.7031,.8161-1.2034,1.5446-1.2421h31.50771c.72559,.04,1.34389,.5407,1.53379,1.2421l2.3331,4.7959c.1728,.9073-.2808,1.6634-1.0801,1.6634h-37.1461c-.7993,0-1.253-.7561-1.0153-1.6634Z" style="fill:#ebebeb;"></path><rect x="627.36049" y="133.2558" width="31.2269" height="31.2269" rx="8.4035" ry="8.4035" style="fill:#f0f0f0;"></rect><path d="M623.42879,163.597l2.3223-4.7959c.197-.7012,.8174-1.2001,1.5446-1.2421h31.4537c.7272,.042,1.34761,.5409,1.54461,1.2421l2.32229,4.7959c.1729,.9073-.2808,1.6634-1.0801,1.6634h-37.1353c-.7993,0-1.2637-.7561-.9721-1.6634Z" style="fill:#ebebeb;"></path><rect x="580.39589" y="133.2558" width="31.2269" height="31.2269" rx="8.4035" ry="8.4035" style="fill:#f0f0f0;"></rect><path d="M576.41019,163.597l2.3332-4.7959c.1899-.7014,.8081-1.2021,1.5338-1.2421h31.4537c.7284,.0387,1.3505,.539,1.5446,1.2421l2.3223,4.7959c.2376,.9073-.2161,1.6634-1.0154,1.6634h-37.146c-.7993,0-1.23139-.7561-1.0262-1.6634Z" style="fill:#ebebeb;"></path><rect x="533.43139" y="133.2558" width="31.2269" height="31.2269" rx="8.4035" ry="8.4035" style="fill:#f0f0f0;"></rect><path d="M529.39169,163.597l2.3331-4.7959c.1899-.7014,.80821-1.2021,1.5338-1.2421h31.4537c.7285,.0387,1.3505,.539,1.5446,1.2421l2.3223,4.7959c.2376,.9073-.216,1.6634-1.0153,1.6634h-37.0921c-.7993,0-1.253-.7561-1.0801-1.6634Z" style="fill:#ebebeb;"></path><rect x="717.17429" y="182.0998" width="2.938" height="34.7914" style="fill:#e6e6e6;"></rect><rect x="644.44839" y="182.0998" width="2.9379" height="34.7914" style="fill:#e6e6e6;"></rect><rect x="571.72239" y="182.0998" width="2.938" height="34.7914" style="fill:#e6e6e6;"></rect></g><g><rect x="45.6759" y="216.6686" width="439.47729" height="172.8983" style="fill:#ebebeb;"></rect><rect x="47.1665" y="88.7798" width="434.87589" height="127.7376" style="fill:#e6e6e6;"></rect><rect x="45.6975" y="55.0686" width="2.938" height="34.7914" style="fill:#e6e6e6;"></rect><rect x="118.42348" y="55.0686" width="2.93799" height="34.7914" style="fill:#e6e6e6;"></rect><rect x="191.1494" y="55.0686" width="2.938" height="34.7914" style="fill:#e6e6e6;"></rect><rect x="263.8754" y="55.0686" width="2.938" height="34.7914" style="fill:#e6e6e6;"></rect><rect x="336.59049" y="55.0686" width="2.938" height="34.7914" style="fill:#e6e6e6;"></rect><rect x="409.31649" y="55.0686" width="2.9379" height="34.7914" style="fill:#e6e6e6;"></rect><rect x="482.04239" y="55.0686" width="2.938" height="34.7914" style="fill:#e6e6e6;"></rect><rect x="74.8614" y="256.4287" width="171.8937" height="133.1274" style="fill:#e0e0e0;"></rect><rect x="285.8346" y="256.4287" width="171.8938" height="133.1274" style="fill:#e0e0e0;"></rect><rect x="60.2579" y="94.4614" width="31.2269" height="31.2269" rx="8.4035" ry="8.4035" style="fill:#f0f0f0;"></rect><path d="M94.4551,126.466H57.3091c-.7993,0-1.253-.7561-1.0802-1.6742l2.3331-4.785c.189-.7039,.8065-1.2083,1.5338-1.253h31.5078c.7301,.0435,1.3514,.5474,1.5446,1.253l2.3223,4.785c.2376,.9181-.2161,1.6742-1.0154,1.6742Z" style="fill:#ebebeb;"></path><rect x="107.2224" y="94.4614" width="31.2269" height="31.2269" rx="8.4035" ry="8.4035" style="fill:#f0f0f0;"></rect><path d="M141.4089,126.466h-37.1353c-.7993,0-1.2529-.7561-1.0801-1.6742l2.3223-4.785c.196-.7037,.8157-1.2063,1.5446-1.253h31.4537c.7289,.0467,1.3486,.5493,1.5446,1.253l2.3223,4.785c.2917,.9181-.1728,1.6742-.9721,1.6742Z" style="fill:#ebebeb;"></path><rect x="154.187" y="94.4614" width="31.2269" height="31.2269" rx="8.4035" ry="8.4035" style="fill:#f0f0f0;"></rect><path d="M188.3735,126.466h-37.1461c-.7993,0-1.253-.7561-1.0153-1.6742l2.3223-4.785c.1931-.7056,.8144-1.2095,1.5445-1.253h31.4538c.7274,.0447,1.3448,.5491,1.5338,1.253l2.3331,4.785c.2052,.9181-.2268,1.6742-1.0261,1.6742Z" style="fill:#ebebeb;"></path><rect x="201.1515" y="94.4614" width="31.2269" height="31.2269" rx="8.4035" ry="8.4035" style="fill:#f0f0f0;"></rect><path d="M235.338,126.466h-37.092c-.7994,0-1.253-.7561-1.0154-1.6742l2.3223-4.785c.1932-.7056,.8144-1.2095,1.5446-1.253h31.4537c.7274,.0447,1.3449,.5491,1.5338,1.253l2.3331,4.785c.1729,.9181-.2808,1.6742-1.0801,1.6742Z" style="fill:#ebebeb;"></path><rect x="60.2579" y="171.065" width="31.2269" height="31.2269" rx="8.4035" ry="8.4035" style="fill:#f0f0f0;"></rect><path d="M94.4551,203.0696H57.3091c-.7993,0-1.253-.7561-1.0802-1.6634l2.3331-4.7958c.1899-.7015,.8082-1.2022,1.5338-1.2422h31.5078c.7284,.0388,1.3504,.539,1.5446,1.2422l2.3223,4.7958c.2376,.8641-.2161,1.6634-1.0154,1.6634Z" style="fill:#ebebeb;"></path><path d="M115.62592,171.065h14.41989c4.63801,0,8.40349,3.76548,8.40349,8.40349v14.41992c0,4.63801-3.76548,8.40349-8.40349,8.40349h-14.41991c-4.63802,0-8.4035-3.76548-8.4035-8.4035v-14.41988c0-4.63803,3.76549-8.40352,8.40352-8.40352Z" style="fill:#f0f0f0;"></path><path d="M141.4089,203.0696h-37.1353c-.7993,0-1.2529-.7561-1.0801-1.6634l2.3223-4.7958c.197-.7012,.8174-1.2002,1.5446-1.2422h31.4537c.7272,.042,1.3476,.541,1.5446,1.2422l2.3223,4.7958c.2917,.8641-.1728,1.6634-.9721,1.6634Z" style="fill:#ebebeb;"></path><path d="M162.5905,171.065h14.4199c4.63802,0,8.4035,3.76548,8.4035,8.4035v14.4199c0,4.63802-3.76548,8.4035-8.4035,8.4035h-14.4199c-4.63802,0-8.4035-3.76548-8.4035-8.4035v-14.4199c0-4.63802,3.76548-8.4035,8.4035-8.4035Z" style="fill:#f0f0f0;"></path><path d="M188.3735,203.0696h-37.1461c-.7993,0-1.253-.7561-1.0153-1.6634l2.3223-4.7958c.1941-.7032,.8161-1.2034,1.5445-1.2422h31.4538c.7256,.04,1.3439,.5407,1.5338,1.2422l2.3331,4.7958c.2052,.8641-.2268,1.6634-1.0261,1.6634Z" style="fill:#ebebeb;"></path><path d="M209.555,171.065h14.4199c4.63802,0,8.4035,3.76548,8.4035,8.4035v14.4199c0,4.63802-3.76548,8.4035-8.4035,8.4035h-14.4199c-4.63802,0-8.4035-3.76548-8.4035-8.4035v-14.4199c0-4.63802,3.76548-8.4035,8.4035-8.4035Z" style="fill:#f0f0f0;"></path><path d="M235.338,203.0696h-37.092c-.7994,0-1.253-.7561-1.0154-1.6634l2.3223-4.7958c.1941-.7032,.8162-1.2034,1.5446-1.2422h31.4537c.7257,.04,1.3439,.5407,1.5338,1.2422l2.3331,4.7958c.1729,.8641-.2808,1.6634-1.0801,1.6634Z" style="fill:#ebebeb;"></path><rect x="60.2579" y="132.882" width="31.2269" height="31.2269" rx="8.4035" ry="8.4035" style="fill:#f0f0f0;"></rect><path d="M94.4551,164.8866H57.3091c-.7993,0-1.253-.7561-1.0802-1.6634l2.3331-4.7958c.1899-.7015,.8082-1.2022,1.5338-1.2422h31.5078c.7284,.0388,1.3504,.539,1.5446,1.2422l2.3223,4.7958c.2376,.9073-.2161,1.6634-1.0154,1.6634Z" style="fill:#ebebeb;"></path><path d="M115.62592,132.882h14.41989c4.63801,0,8.40349,3.76548,8.40349,8.40349v14.41992c0,4.63801-3.76548,8.40349-8.40349,8.40349h-14.41991c-4.63802,0-8.4035-3.76548-8.4035-8.4035v-14.41988c0-4.63803,3.76549-8.40352,8.40352-8.40352Z" style="fill:#f0f0f0;"></path><path d="M141.4089,164.8866h-37.1353c-.7993,0-1.2529-.7561-1.0801-1.6634l2.3223-4.7958c.197-.7013,.8174-1.2002,1.5446-1.2422h31.4537c.7272,.042,1.3476,.5409,1.5446,1.2422l2.3223,4.7958c.2917,.9073-.1728,1.6634-.9721,1.6634Z" style="fill:#ebebeb;"></path><path d="M162.5905,132.882h14.4199c4.63802,0,8.4035,3.76548,8.4035,8.4035v14.4199c0,4.63802-3.76548,8.4035-8.4035,8.4035h-14.4199c-4.63802,0-8.4035-3.76548-8.4035-8.4035v-14.4199c0-4.63802,3.76548-8.4035,8.4035-8.4035Z" style="fill:#f0f0f0;"></path><path d="M188.3735,164.8866h-37.1461c-.7993,0-1.253-.7561-1.0153-1.6634l2.3223-4.7958c.1941-.7032,.8161-1.2034,1.5445-1.2422h31.4538c.7256,.04,1.3439,.5407,1.5338,1.2422l2.3331,4.7958c.2052,.9073-.2268,1.6634-1.0261,1.6634Z" style="fill:#ebebeb;"></path><path d="M209.555,132.882h14.4199c4.63802,0,8.4035,3.76548,8.4035,8.4035v14.4199c0,4.63802-3.76548,8.4035-8.4035,8.4035h-14.4199c-4.63802,0-8.4035-3.76548-8.4035-8.4035v-14.4199c0-4.63802,3.76548-8.4035,8.4035-8.4035Z" style="fill:#f0f0f0;"></path><path d="M235.338,164.8866h-37.092c-.7994,0-1.253-.7561-1.0154-1.6634l2.3223-4.7958c.1941-.7032,.8162-1.2034,1.5446-1.2422h31.4537c.7257,.04,1.3439,.5407,1.5338,1.2422l2.3331,4.7958c.1729,.9073-.2808,1.6634-1.0801,1.6634Z" style="fill:#ebebeb;"></path><rect x="295.88" y="94.4614" width="31.22689" height="31.2269" rx="8.4035" ry="8.4035" style="fill:#f0f0f0;"></rect><path d="M330.02329,126.466h-37.1029c-.7993,0-1.253-.7561-1.0262-1.6742l2.3331-4.785c.1902-.7075,.8132-1.2128,1.5446-1.253h31.443c.7314,.0402,1.3544,.5455,1.5446,1.253l2.3223,4.785c.2376,.9181-.216,1.6742-1.0585,1.6742Z" style="fill:#ebebeb;"></path><rect x="342.84449" y="94.4614" width="31.2269" height="31.2269" rx="8.4035" ry="8.4035" style="fill:#f0f0f0;"></rect><path d="M377.031,126.466h-37.14611c-.7992,0-1.25289-.7561-1.0261-1.6742l2.3331-4.785c.189-.7039,.8065-1.2083,1.5338-1.253h31.4537c.7315,.0402,1.3544,.5455,1.54461,1.253l2.32229,4.785c.23771,.9181-.216,1.6742-1.01529,1.6742Z" style="fill:#ebebeb;"></path><rect x="389.79829" y="94.4614" width="31.2269" height="31.2269" rx="8.4035" ry="8.4035" style="fill:#f0f0f0;"></rect><path d="M423.99559,126.466h-37.1461c-.7993,0-1.253-.7561-1.0262-1.6742l2.3332-4.785c.1889-.7039,.8064-1.2083,1.5338-1.253h31.45371c.73019,.0435,1.35149,.5474,1.54459,1.253l2.3223,4.785c.2376,.9181-.216,1.6742-1.0153,1.6742Z" style="fill:#ebebeb;"></path><rect x="436.76289" y="94.4614" width="31.2269" height="31.2269" rx="8.4035" ry="8.4035" style="fill:#f0f0f0;"></rect><path d="M470.94929,126.466h-37.1352c-.7993,0-1.2638-.7561-1.0262-1.6742l2.3223-4.785c.196-.7037,.8157-1.2063,1.5446-1.253h31.4537c.729,.0467,1.3486,.5493,1.5446,1.253l2.3223,4.785c.2377,.9181-.2268,1.6742-1.0261,1.6742Z" style="fill:#ebebeb;"></path><path d="M304.2835,171.065h14.4199c4.63802,0,8.4035,3.76548,8.4035,8.4035v14.4199c0,4.63802-3.76548,8.4035-8.4035,8.4035h-14.4199c-4.63802,0-8.4035-3.76548-8.4035-8.4035v-14.4199c0-4.63802,3.76548-8.4035,8.4035-8.4035Z" style="fill:#f0f0f0;"></path><path d="M330.02329,203.0696h-37.1029c-.7993,0-1.253-.7561-1.0262-1.6634l2.3331-4.7958c.1912-.7051,.8149-1.2067,1.5446-1.2422h31.443c.7297,.0355,1.3534,.5371,1.5446,1.2422l2.3439,4.7958c.216,.8641-.2376,1.6634-1.0801,1.6634Z" style="fill:#ebebeb;"></path><path d="M351.24799,171.065h14.4199c4.63802,0,8.4035,3.76548,8.4035,8.4035v14.4199c0,4.63802-3.76548,8.4035-8.4035,8.4035h-14.4199c-4.63802,0-8.4035-3.76548-8.4035-8.4035v-14.4199c0-4.63802,3.76548-8.4035,8.4035-8.4035Z" style="fill:#f0f0f0;"></path><path d="M377.031,203.0696h-37.14611c-.7992,0-1.25289-.7561-1.0261-1.6634l2.3331-4.7958c.1899-.7015,.8082-1.2022,1.5338-1.2422h31.4537c.7298,.0355,1.3535,.5371,1.54461,1.2422l2.32229,4.7958c.23771,.8641-.216,1.6634-1.01529,1.6634Z" style="fill:#ebebeb;"></path><path d="M398.20179,171.065h14.4199c4.63802,0,8.4035,3.76548,8.4035,8.4035v14.4199c0,4.63802-3.76548,8.4035-8.4035,8.4035h-14.4199c-4.63802,0-8.4035-3.76548-8.4035-8.4035v-14.4199c0-4.63802,3.76548-8.4035,8.4035-8.4035Z" style="fill:#f0f0f0;"></path><path d="M423.99559,203.0696h-37.1461c-.7993,0-1.253-.7561-1.0262-1.6634l2.3332-4.7958c.1899-.7015,.8081-1.2022,1.5338-1.2422h31.45371c.72839,.0388,1.35049,.539,1.54459,1.2422l2.3223,4.7958c.2376,.8641-.216,1.6634-1.0153,1.6634Z" style="fill:#ebebeb;"></path><path d="M445.16639,171.065h14.4199c4.63802,0,8.4035,3.76548,8.4035,8.4035v14.4199c0,4.63802-3.76548,8.4035-8.4035,8.4035h-14.4199c-4.63802,0-8.4035-3.76548-8.4035-8.4035v-14.4199c0-4.63802,3.76548-8.4035,8.4035-8.4035Z" style="fill:#f0f0f0;"></path><path d="M470.94929,203.0696h-37.1352c-.7993,0-1.2638-.7561-1.0262-1.6634l2.3223-4.7958c.197-.7012,.8174-1.2002,1.5446-1.2422h31.4537c.7272,.042,1.3476,.541,1.5446,1.2422l2.3223,4.7958c.2377,.8641-.2268,1.6634-1.0261,1.6634Z" style="fill:#ebebeb;"></path><path d="M304.2835,132.882h14.4199c4.63802,0,8.4035,3.76548,8.4035,8.4035v14.4199c0,4.63802-3.76548,8.4035-8.4035,8.4035h-14.4199c-4.63802,0-8.4035-3.76548-8.4035-8.4035v-14.4199c0-4.63802,3.76548-8.4035,8.4035-8.4035Z" style="fill:#f0f0f0;"></path><path d="M330.02329,164.8866h-37.1029c-.7993,0-1.253-.7561-1.0262-1.6634l2.3331-4.7958c.1912-.7051,.8149-1.2067,1.5446-1.2422h31.443c.7297,.0355,1.3534,.5371,1.5446,1.2422l2.3223,4.7958c.2376,.9073-.216,1.6634-1.0585,1.6634Z" style="fill:#ebebeb;"></path><path d="M351.24799,132.882h14.4199c4.63802,0,8.4035,3.76548,8.4035,8.4035v14.4199c0,4.63802-3.76548,8.4035-8.4035,8.4035h-14.4199c-4.63802,0-8.4035-3.76548-8.4035-8.4035v-14.4199c0-4.63802,3.76548-8.4035,8.4035-8.4035Z" style="fill:#f0f0f0;"></path><path d="M377.031,164.8866h-37.14611c-.7992,0-1.25289-.7561-1.0261-1.6634l2.3331-4.7958c.1899-.7015,.8082-1.2022,1.5338-1.2422h31.4537c.7298,.0355,1.3535,.5371,1.54461,1.2422l2.32229,4.7958c.23771,.9073-.216,1.6634-1.01529,1.6634Z" style="fill:#ebebeb;"></path><path d="M398.20179,132.882h14.4199c4.63802,0,8.4035,3.76548,8.4035,8.4035v14.4199c0,4.63802-3.76548,8.4035-8.4035,8.4035h-14.4199c-4.63802,0-8.4035-3.76548-8.4035-8.4035v-14.4199c0-4.63802,3.76548-8.4035,8.4035-8.4035Z" style="fill:#f0f0f0;"></path><path d="M423.99559,164.8866h-37.1461c-.7993,0-1.253-.7561-1.0262-1.6634l2.3332-4.7958c.1899-.7015,.8081-1.2022,1.5338-1.2422h31.45371c.72839,.0388,1.35049,.539,1.54459,1.2422l2.3223,4.7958c.2376,.9073-.216,1.6634-1.0153,1.6634Z" style="fill:#ebebeb;"></path><path d="M445.16639,132.882h14.4199c4.63802,0,8.4035,3.76548,8.4035,8.4035v14.4199c0,4.63802-3.76548,8.4035-8.4035,8.4035h-14.4199c-4.63802,0-8.4035-3.76548-8.4035-8.4035v-14.4199c0-4.63802,3.76548-8.4035,8.4035-8.4035Z" style="fill:#f0f0f0;"></path><path d="M470.94929,164.8866h-37.1352c-.7993,0-1.2638-.7561-1.0262-1.6634l2.3223-4.7958c.197-.7013,.8174-1.2002,1.5446-1.2422h31.4537c.7272,.042,1.3476,.5409,1.5446,1.2422l2.3223,4.7958c.2377,.9073-.2268,1.6634-1.0261,1.6634Z" style="fill:#ebebeb;"></path><rect x="45.6975" y="181.726" width="2.938" height="34.7914" style="fill:#e6e6e6;"></rect><rect x="118.42348" y="181.726" width="2.93799" height="34.7914" style="fill:#e6e6e6;"></rect><rect x="191.1494" y="181.726" width="2.938" height="34.7914" style="fill:#e6e6e6;"></rect><rect x="263.8754" y="181.726" width="2.938" height="34.7914" style="fill:#e6e6e6;"></rect><rect x="336.59049" y="181.726" width="2.938" height="34.7914" style="fill:#e6e6e6;"></rect><rect x="409.31649" y="181.726" width="2.9379" height="34.7914" style="fill:#e6e6e6;"></rect><rect x="482.04239" y="181.726" width="2.938" height="34.7914" style="fill:#e6e6e6;"></rect></g></g></g><g id="freepik--Shadow--inject-2"><ellipse cx="396.77187" cy="435.70568" rx="319.06047" ry="12.00412" style="fill:#f5f5f5;"></ellipse></g><g id="freepik--Character_1--inject-2"><g><g><path d="M178.749,263.6642s-39.8992,28.2446-59.4507,52.2648c-2.90226,3.5656-4.8622,7.8494-5.5756,12.4404-5.0856,32.7265,5.71823,85.5364,5.71823,85.5364l10.61104,3.772s6.96113-63.3596,5.20973-87.1762c58.4486-37.6549,87.8331-72.9563,87.8331-72.9563l-44.3458,6.1189Z" style="fill:#ffa666;"></path><path d="M119.14865,414.8277c.29228-.5877-3.34391-19.117-3.09596-19.0372,.24796,.0797,16.17039,.2494,16.13394,.6493-.03646,.3999-1.87565,22.5075-1.87565,22.5075h-8.30024l-2.86209-4.1196Z" style="fill:#7E57C2;"></path><g><g><path d="M118.89159,412.4771c1.86299-.3834,3.01084,.024,3.15828,1.537,.88023-.0049,1.711,.4272,2.25771,1.1207,2.35772,2.9916,4.0003,1.8471,6.33271-.9904,1.54434-.1857,2.02843,1.5575,2.17292,2.0258l3.30369,10.3562c.2856,.8649-.1912,1.7705-1.0653,2.023-.15541,.0449-.31745,.067-.48097,.0653-4.72404,.0257-6.95906,.0379-12.83851,.0701l-17.98132,.0979c-4.902,.0269-6.1024-4.8114-4.1004-5.2705,9.0045-2.0168,15.334-4.6716,18.04166-7.2768,.50301-.4563,.68738-2.3509,1.19953-3.7583Z" style="fill:#7E57C2;"></path><path d="M103.4115,427.4592c3.3295,.7498,7.9906-2.2045,12.23575-2.2324,4.24487-.0279,4.24487,1.6536,11.65283,2.167s8.40212-2.167,8.40212-2.167l.0004,.0009,.4143,1.2987c.2855,.8648-.1912,1.7705-1.0653,2.0229-.15536,.045-.31747,.0671-.481,.0654-4.72393,.0257-6.95902,.0379-12.83846,.07l-17.98134,.098c-2.615,.0143-4.1666-1.3558-4.7507-2.7072,.5429,.2536,1.9265,.824,4.4114,1.3837Z" style="fill:#7E57C2;"></path><path d="M129.13009,422.9984c-2.41505,.27426-4.84448-.24999-6.93008-1.4986-.41514-.24853-.79269,.39966-.37854,.6476,2.1883,1.3101,4.77178,1.88909,7.30862,1.601,.47411-.05384,.47957-.80446,0-.75h0Z" style="fill:#fff;"></path><path d="M118.89159,412.4771c1.86299-.3834,3.01084,.024,3.15828,1.537,.88023-.0049,1.711,.4272,2.25771,1.1207,2.35772,2.9916,4.0003,1.8471,6.33271-.9904,1.54434-.1857,2.02843,1.5575,2.17292,2.0258l3.30369,10.3562c.2856,.8649-.1912,1.7705-1.0653,2.023-.15541,.0449-.31745,.067-.48097,.0653-4.72404,.0257-6.95906,.0379-12.83851,.0701l-17.98132,.0979c-4.902,.0269-6.1024-4.8114-4.1004-5.2705,9.0045-2.0168,15.334-4.6716,18.04166-7.2768,.50301-.4563,.68738-2.3509,1.19953-3.7583Z"></path></g><path d="M117.04295,419.61753c-.48337-.62358-.9668-1.24712-1.45017-1.8707-.12078-.15581-.4051-.13642-.53033,0-.15167,.16522-.12887,.36408,0,.53033,.48337,.62358,.9668,1.24712,1.45017,1.8707,.12078,.15581,.4051,.13642,.53033,0,.15167-.16522,.12887-.36408,0-.53033h0Z"></path><path d="M114.79397,420.84403c-.12901-.13548-.25244-.27604-.36917-.42224-.0054-.00677-.06031-.07692-.03185-.04009,.02478,.03207-.0167-.02224-.02084-.02775-.02651-.03525-.05264-.07078-.07841-.10658-.05802-.08062-.11415-.1626-.16833-.24585-.20841-.32024-.38675-.65891-.53546-1.01079-.07667-.18142-.358-.23451-.51307-.13453-.18872,.12167-.21657,.31895-.13453,.51307,.31358,.74199,.76598,1.42188,1.32134,2.0051,.13556,.14236,.39562,.14675,.53033,0,.14019-.15272,.14462-.37846,0-.53033h0Z"></path><path d="M112.35057,421.99663c-.12899-.13549-.2524-.27604-.36913-.42224-.0054-.00677-.06031-.07692-.03185-.04009,.02478,.03207-.0167-.02224-.02084-.02775-.02651-.03525-.05264-.07078-.07841-.10658-.05802-.08062-.11415-.1626-.16833-.24585-.20842-.32024-.38679-.6589-.5355-1.01079-.07667-.18142-.358-.23451-.51307-.13453-.18872,.12167-.21657,.31895-.13453,.51307,.31358,.74199,.76604,1.42184,1.32134,2.0051,.13554,.14237,.39562,.14674,.53033,0,.1402-.15273,.14461-.37844,0-.53033h0Z"></path></g></g><g><path d="M253.6323,336.7991c-17.607-60.3011-22.8165-80.8221-22.8165-80.8221l-38.2102,4.9566s21.2258,63.2251,39.9074,86.4168c0,0,10.3888,11.1738,15.0537,7.442,.8841-.7074,1.7308-1.5206,2.5223-2.3741,3.8726-4.1759,5.1395-10.1522,3.5433-15.6192Z" style="fill:#ffa666;"></path><g><path d="M246.1891,356.8909c-.1676,.0158,32.6031,68.3945,32.9122,68.24,.3091-.1546,6.8002-2.8242,6.182-2.5712-.6182,.2529-33.8462-69.294-33.8462-69.294l-5.248,3.6252Z" style="fill:#263238;"></path><path d="M246.1891,356.8909c-.1676,.0158,32.6031,68.3945,32.9122,68.24,.3091-.1546,6.8002-2.8242,6.182-2.5712-.6182,.2529-33.8462-69.294-33.8462-69.294l-5.248,3.6252Z" style="fill:#fff; opacity:.3;"></path><path d="M232.3843,348.8056s-7.6108-9.3196-11.6115-19.8078l27.6948-9.6451c2.8904,7.929,5.5464,15.6141,6.1673,21.1801,1.1553,3.9676,.8888,8.2817-1.0581,11.9267-2.7414,5.1324-13.2499,6.7223-21.1925-3.6539Z" style="fill:#263238;"></path><path d="M232.3843,348.8056s10.5641-1.3692,15.8194-4.6275c5.2554-3.2583,6.2678-4.2063,6.2678-4.2063,0,0,4.4532,11.7396-4.5861,15.9085-9.0392,4.169-16.0214-5.1477-17.5011-7.0747Z" style="fill:#263238;"></path><path d="M232.3843,348.8056s10.5641-1.3692,15.8194-4.6275c5.2554-3.2583,6.2678-4.2063,6.2678-4.2063,0,0,4.4532,11.7396-4.5861,15.9085-9.0392,4.169-16.0214-5.1477-17.5011-7.0747Z" style="fill:#fff; opacity:.3;"></path><path d="M253.0808,386.1475c-1.0896-5.4873,.6784-11.5802,3.0752-12.9349,5.2587-2.9723,12.5804,3.3341,13.6103,5.4332,2.657,5.415,10.2012,31.1367,9.4821,31.8347-.1928,.1872-5.5653,3.4286-6.0755,3.1745-2.9518-1.4697-20.0921-27.5075-20.0921-27.5075Z" style="fill:#263238;"></path><path d="M253.0808,386.1475c-1.0896-5.4873,.6784-11.5802,3.0752-12.9349,5.2587-2.9723,12.5804,3.3341,13.6103,5.4332,2.657,5.415,10.2012,31.1367,9.4821,31.8347-.1928,.1872-5.5653,3.4286-6.0755,3.1745-2.9518-1.4697-20.0921-27.5075-20.0921-27.5075Z" style="fill:#fff; opacity:.3;"></path><path d="M244.6237,357.4454c3.19289,.13154,6.3475-1.01924,8.72226-3.15283,.3598-.32326-.17201-.85226-.53033-.53033-2.23109,2.00452-5.19831,3.0565-8.19193,2.93317-.48263-.01988-.48171,.73015,0,.75h0Z" style="fill:#263238;"></path><path d="M254.5455,375.2509c2.15551,.14179,4.33479-.77332,5.74056-2.41393,.3125-.3647-.21564-.89759-.53033-.53033-1.28953,1.50494-3.23234,2.32437-5.21023,2.19427-.48187-.0317-.47994,.71843,0,.75h0Z" style="fill:#263238;"></path><path d="M253.60517,385.4271c3.10412-1.77973,6.73705-.37247,9.17188,1.88035,2.3217,2.14814,4.11553,4.92129,5.81729,7.56693,3.4965,5.43583,6.45819,11.19023,9.77645,16.73258,.24768,.4137,.89639,.037,.6476-.37854-3.74846-6.2609-7.02849-12.81898-11.17452-18.83623-3.08471-4.47692-8.44467-11.15172-14.61725-7.6127-.41864,.24003-.0413,.88831,.37854,.6476h0Z" style="fill:#263238;"></path><path d="M273.3831,413.7197c2.18319-.06539,4.31936-.80887,6.05457-2.1389,.16193-.12412,.24364-.32135,.13453-.51307-.09061-.15921-.35264-.2575-.51307-.13453-1.63392,1.25239-3.61611,1.97481-5.67603,2.0365-.48153,.01442-.48358,.76448,0,.75h0Z" style="fill:#263238;"></path></g><g><g><path d="M286.1782,415.7523c-1.863-.3729-3.0108,.0234-3.1583,1.4952-.8802-.0047-1.711,.4156-2.2577,1.0902-2.3577,2.9103-4.0003,1.7969-6.3327-.9634-1.5443-.1806-2.0284,1.5151-2.1729,1.9707l-3.3037,10.0745c-.2856,.8413,.1912,1.7223,1.0653,1.9679,.1554,.0437,.3174,.0652,.481,.0636,4.724,.025,6.959,.0369,12.8385,.0681l17.9813,.0953c4.9019,.0261,6.1024-4.6806,4.1004-5.1271-9.0045-1.962-15.334-4.5446-18.0417-7.0789-.503-.4439-.6874-2.2869-1.1995-3.6561Z" style="fill:#7E57C2;"></path><path d="M301.6583,430.3268c-3.3295,.7295-7.9906-2.1445-12.2358-2.1716-4.2448-.0271-4.2448,1.6086-11.6528,2.108-7.408,.4995-8.4021-2.108-8.4021-2.108l-.0004,.0009-.4143,1.2633c-.2856,.8414,.1912,1.7224,1.0653,1.9679,.1553,.0438,.3175,.0653,.481,.0636,4.7239,.025,6.959,.037,12.8384,.0682l17.9814,.0952c2.615,.014,4.1666-1.3189,4.7506-2.6334-.5429,.2466-1.9264,.8015-4.4113,1.3459Z" style="fill:#7E57C2;"></path><path d="M275.9397,426.7273c2.53093,.27922,5.10945-.27839,7.30857-1.5589,.41692-.24277,.03981-.8912-.37854-.6476-2.09459,1.21964-4.5224,1.72212-6.93003,1.4565-.47905-.05285-.4753,.69756,0,.75h0Z" style="fill:#fff;"></path><path d="M286.1782,415.7523c-1.863-.3729-3.0108,.0234-3.1583,1.4952-.8802-.0047-1.711,.4156-2.2577,1.0902-2.3577,2.9103-4.0003,1.7969-6.3327-.9634-1.5443-.1806-2.0284,1.5151-2.1729,1.9707l-3.3037,10.0745c-.2856,.8413,.1912,1.7223,1.0653,1.9679,.1554,.0437,.3174,.0652,.481,.0636,4.724,.025,6.959,.0369,12.8385,.0681l17.9813,.0953c4.9019,.0261,6.1024-4.6806,4.1004-5.1271-9.0045-1.962-15.334-4.5446-18.0417-7.0789-.503-.4439-.6874-2.2869-1.1995-3.6561Z"></path></g><path d="M288.55717,423.22167l1.4502-1.8198c.06434-.08074,.10983-.15765,.10983-.26517,0-.09198-.04085-.20184-.10983-.26517-.13583-.12469-.39977-.16383-.53033,0l-1.4502,1.8198c-.06434,.08074-.10983,.15764-.10983,.26517,0,.09198,.04085,.20184,.10983,.26517,.13583,.12469,.39977,.16383,.53033,0h0Z"></path><path d="M290.80617,424.41477c.55262-.56463,1.00642-1.22769,1.32133-1.9526,.07794-.17942,.059-.41082-.13453-.51307-.16192-.08555-.42962-.05757-.51307,.13453-.14902,.34305-.32759,.67257-.53561,.98347-.05048,.07545-.10265,.14978-.15641,.22293l-.03821,.05144c-.00907,.01207-.05556,.07188-.0095,.01317-.02637,.03361-.05289,.0671-.07985,.10024-.12135,.14918-.24998,.29213-.38448,.42955-.13735,.14034-.15034,.39232,0,.53033,.14837,.1362,.38373,.14979,.53033,0h0Z"></path><path d="M293.24946,425.53607c.55269-.56459,1.00652-1.22767,1.32144-1.9526,.07794-.17942,.059-.41082-.13453-.51307-.16192-.08555-.42962-.05757-.51307,.13453-.14902,.34305-.32759,.67257-.53562,.98347-.05049,.07545-.10265,.14978-.15642,.22293l-.03822,.05144c-.00907,.01207-.05558,.07187-.0095,.01317-.02638,.03361-.0529,.0671-.07986,.10024-.12137,.14918-.25002,.29213-.38454,.42955-.13737,.14033-.15033,.39233,0,.53033,.14839,.13621,.38372,.14977,.53033,0h0Z"></path></g></g><g><g><g><path d="M102.0003,253.1155s-8.758-2.2315-10.0079-1.2568c-1.25,.9748-1.6922,2.2593-1.6922,2.2593,0,0-3.2752,.5744-3.6015,2.335-.2769,1.4941,1.6084,1.6239,1.6084,1.6239,0,0-1.1277,2.8918,.9288,3.1441,0,0-.6846,2.2576,1.6692,2.8132,0,0,.7571,1.9845,2.4775,1.8542,1.7202-.1302,8.0694-2.2968,10.6779-4.497,.7899-.6662,1.0237-1.2377,.9462-2.306l13.03819-3.6123-5.65749-6.2771-10.3871,3.9195Z" style="fill:#ffa666;"></path><path d="M96.7475,227.6995c6.3133,10.4428,1.6068,18.8129-7.2164,24.1471-8.8232,5.3342-18.4218,5.6124-24.7351-4.8304-6.3133-10.4427-3.0879-22.6941,5.7353-28.0283s19.9029-1.7311,26.2162,8.7116Z" style="fill:#7E57C2;"></path><path d="M96.7475,227.6995c6.3133,10.4428,1.6068,18.8129-7.2164,24.1471-8.8232,5.3342-18.4218,5.6124-24.7351-4.8304-6.3133-10.4427-3.0879-22.6941,5.7353-28.0283s19.9029-1.7311,26.2162,8.7116Z" style="opacity:.3;"></path><path d="M97.8149,227.6995c6.3133,10.4428,1.6067,18.8129-7.2164,24.1471-8.8232,5.3342-18.4219,5.6124-24.7352-4.8304-6.3133-10.4427-3.0878-22.6941,5.7354-28.0283,8.8231-5.3342,19.9029-1.7311,26.2162,8.7116Z" style="fill:#7E57C2;"></path><rect x="90.31022" y="248.86692" width="6.4656" height="16.90131" transform="translate(-119.63593 85.5114) rotate(-31.15601)" style="fill:#7E57C2;"></rect><g><path d="M99.2787,256.9798c-.6713,.7629-1.78,1.0391-2.785,.8884-1.0052-.1507-2.5044-.899-3.3079-1.5214,.0967,1.3069-.8648,3.4013-2.1062,3.8208-.6699,.2265-1.102,.0925-1.432-.533-.201-.3813,.0848-1.3599,.1526-1.7856,.1838-1.1556,.2092-2.3289,.3931-3.4844,0,0-.229-3.1257,3.6149-2.857" style="fill:#ffa666;"></path><path d="M90.54053,260.51953c-.48047,0-.8418-.25195-1.11426-.76758-.18408-.35059-.08105-.93555,.06104-1.6084,.02734-.12891,.05176-.24414,.06592-.33398,.09033-.56836,.14307-1.15527,.19434-1.72266,.05176-.57812,.10547-1.1748,.19873-1.76172h0c-.00635,0-.08643-1.2666,.82812-2.18457,.67725-.67969,1.70459-.97656,3.05127-.88184,.1377,.00879,.24121,.12891,.23193,.2666-.00977,.1377-.13135,.25391-.26709,.23145-1.19727-.08008-2.0918,.16406-2.66211,.73633-.75635,.75977-.68652,1.8418-.68555,1.85254-.09326,.62793-.14648,1.2168-.19727,1.78613-.05176,.5752-.10547,1.1709-.19824,1.75586-.01562,.09668-.0415,.2207-.0708,.35938-.07812,.36816-.22266,1.05273-.10791,1.27148,.2627,.49707,.55811,.60645,1.13086,.41211,1.10596-.37402,2.02881-2.3252,1.93701-3.56543-.00732-.09863,.04443-.19238,.13135-.23926,.08643-.0459,.19287-.03809,.27148,.02344,.76855,.59473,2.23438,1.32812,3.19141,1.47168,1.00781,.15137,1.99023-.15723,2.56006-.80664,.0918-.10449,.24951-.11426,.35303-.02246,.10352,.09082,.11377,.24902,.02295,.35254-.68115,.77441-1.83643,1.15137-3.01025,.9707-.9126-.13672-2.17041-.72559-3.02539-1.28809-.11719,1.40625-1.06543,3.16992-2.27148,3.57812-.22559,.07617-.43164,.11426-.61914,.11426Z" style="fill:#fe7f3a;"></path></g></g><g><path d="M93.543,265.5426c.3669-.11,1.9567-.7043,2.2715-.9223,.315-.2181,.5671-.5625,.5756-.9454,.0136-.6109-.5782-1.0736-1.1673-1.2363-.8137-.2251-1.7252-.066-2.4146,.4215,.5956-.2546,1.1543-.6413,1.4969-1.1911,.3426-.5495,.7475-1.2723,.1315-1.8505-.4723-.4433-2.3534,.1851-2.9492,.4391" style="fill:#ffa666;"></path><path d="M93.54297,265.79297c-.10742,0-.20703-.06934-.23926-.17773-.04004-.13281,.03516-.27148,.16699-.31152,.39502-.11914,1.92969-.70117,2.20166-.88965,.28711-.19824,.46191-.47656,.46777-.74512,.01074-.46777-.4873-.85156-.98438-.98926-.52344-.14551-1.10156-.11133-1.61572,.07812-.19385,.12305-.40527,.23438-.63379,.33203-.1167,.04883-.25439,.00391-.31641-.10742-.0625-.11133-.03027-.25195,.07373-.32617,.20459-.14453,.42578-.2627,.65723-.35254,.33057-.21973,.59277-.47852,.77246-.7666,.42236-.67871,.58594-1.14844,.17236-1.53613-.28906-.27051-1.8042,.11328-2.68018,.4873-.12744,.05176-.27441-.00488-.32812-.13281-.0542-.12695,.00488-.27344,.13184-.32715,.02539-.01172,2.52051-1.0459,3.21826-.39258,.79395,.74512,.19678,1.7041-.08984,2.16504-.0625,.10059-.13281,.19727-.21045,.29102,.32764-.0166,.66162,.01758,.98193,.10547,.6626,.18359,1.36816,.72559,1.35107,1.4834-.00928,.42773-.26465,.85547-.68359,1.14551-.36279,.25098-1.99805,.85254-2.34131,.95605-.02441,.00781-.04834,.01074-.07227,.01074Z" style="fill:#fe7f3a;"></path></g></g><path d="M177.3555,201.0553c-3.9721,7.2574-8.1502,14.16-12.6947,21.0053-2.2894,3.4113-4.6628,6.7805-7.1201,10.1078-2.4967,3.3939-5.1715,6.6532-8.0129,9.7643l-1.1447,1.1447c-.4242,.4719-.8752,.9191-1.3507,1.3393-1.0273,.9224-2.1474,1.7357-3.3426,2.4268-1.9396,1.119-3.9466,2.1168-6.0097,2.9876-3.92629,1.7056-7.81829,3.0449-11.72174,4.3385-7.76549,2.4861-15.65566,4.5647-23.63816,6.2271l-1.9002-6.25c7.349-3.0678,14.75526-6.1585,21.94399-9.3637,3.59437-1.6026,7.14296-3.2738,10.47403-5.0367,1.57491-.8279,3.10348-1.7412,4.57878-2.7358,.332-.229,.5953-.4465,.8929-.6639,.1964-.1652,.3836-.341,.5609-.5266,0,0,.4579-.5266,.7212-.8356l.8814-1.0532c4.7711-6.0438,9.1784-12.3661,13.1984-18.9334,4.1667-6.6393,8.2648-13.5075,12.1568-20.2612l11.5271,6.3187Z" style="fill:#ffa666;"></path><polygon points="111.6511 249.3078 102.6713 252.4644 105.9296 259.6278 114.7449 257.6341 111.6511 249.3078" style="fill:#7E57C2;"></polygon><path d="M86.2104,230.64713c-2.93569,5.23559-5.87139,10.47118-8.8072,15.7067-.23634,.42147,.41126,.80002,.6476,.37854,2.93581-5.23552,5.87151-10.47111,8.8072-15.7067,.23633-.42148-.41127-.80003-.6476-.37854h0Z" style="fill:#263238;"></path><path d="M77.2485,240.38247c1.72653-2.43148,3.25126-4.99886,4.5601-7.6784,.21102-.43201-.43556-.81264-.6476-.37854-1.30884,2.67954-2.83357,5.24692-4.5601,7.6784-.27997,.39428,.37014,.76929,.6476,.37854h0Z" style="fill:#263238;"></path></g><path d="M213.013,205.135s10.8731,13.4986,13.1939,15.3552c2.3207,1.8566,1.7018,10.0257,6.8074,9.7316,5.1055-.294,9.08-8.7463,5.831-15.969-3.249-7.2228-13.7377-20.4475-13.7377-20.4475l-12.0946,11.3297Z" style="fill:#ffa666;"></path><g><path d="M198.3349,277.2456s5.1882,14.2204,9.0115,24.1335c8.8829,.7212,29.5421-2.8534,34.4757-7.707-1.9688-9.4896-2.7816-27.2668-12.0079-40.4538-21.6578,2.5298-31.4793,24.0273-31.4793,24.0273Z" style="fill:#263238;"></path><polygon points="177.3555 251.427 176.9862 262.0211 231.0963 254.9468 225.3922 246.0532 177.3555 251.427" style="fill:#263238;"></polygon><path d="M176.9862,262.0211s-13.1298,9.8101-20.7306,17.2621c2.8617,8.4365,13.7364,20.6047,21.9096,21.3716,8.8028-4.0751,43.6132-20.5131,46.0629-45.8568-10.6458,1.1447-47.2419,7.2231-47.2419,7.2231Z" style="fill:#263238;"></path><g style="opacity:.3;"><path d="M201.8879,286.9035c-1.8479-5.093-3.2391-10.8479-5.087-15.9409l-2.2456,20.9611,7.3326-5.0202Z"></path></g></g><g><path d="M210.0212,180.8022c8.3084-.7759,19.0099,17.4329,18.9847,17.6418l-14.6158,10.1795s-2.5982-2.388-11.2009-10.5691c-8.9548-8.536-1.7065-16.4872,6.832-17.2522Z" style="fill:#7E57C2;"></path><path d="M180.4806,194.0841c5.8609,12.1109-13.1298,31.216-13.1298,31.216l-16.4952-11.1494s4.7644-10.2507,9.3089-18.2178c7.6352-13.3587,15.4511-11.8421,20.3161-1.8488Z" style="fill:#7E57C2;"></path><path d="M180.4806,194.0841c5.8609,12.1109-13.1298,31.216-13.1298,31.216l-16.4952-11.1494s4.7644-10.2507,9.3089-18.2178c7.6352-13.3587,15.4511-11.8421,20.3161-1.8488Z" style="fill:#fff; opacity:.5;"></path><path d="M168.1147,187.0168s-12.248,15.2804,7.4646,51.0476c0,0,1.0794,7.4926,.9889,13.4127l50.9616-5.4239c-.7097-7.1439-17.3485-30.2555-14.7043-64.5565,0,0-2.1544-1.7317-8.1719-1.2769-7.3883,.4939-14.7382,1.3696-22.0127,2.6229-4.9559,1.0541-9.8126,2.4497-14.5262,4.1741Z" style="fill:#7E57C2;"></path><path d="M169.6673,223.95061c-2.09524-7.64434-5.08404-15.04536-4.9381-23.10161,.00875-.48281-.74125-.48285-.75,0-.14717,8.12442,2.85149,15.59039,4.9649,23.30099,.12743,.46491,.85119,.26754,.72321-.19938h0Z" style="fill:#263238;"></path><path d="M210.0212,180.8022c8.3084-.7759,19.0099,17.4329,18.9847,17.6418l-14.6158,10.1795s-2.5982-2.388-11.2009-10.5691c-8.9548-8.536-1.7065-16.4872,6.832-17.2522Z" style="fill:#fff; opacity:.5;"></path><path d="M202.3447,205.135c0,1.288-2.3695,2.3322-5.2923,2.3322s-5.2923-1.0442-5.2923-2.3322c0-1.2881,2.3695-2.3323,5.2923-2.3323s5.2923,1.0442,5.2923,2.3323Z" style="fill:#fff; opacity:.5;"></path></g><g><path d="M203.469,139.5813c-.6108-.3254-1.3636-.3181-2.0937-.1959-.2967-1.2975-1.4139-2.1072-2.6445-2.1803-1.2305-.0734-2.5398,.504-3.6608,1.3601-2.2675-1.1394-5.5863,.1796-7.1904,2.8574-1.8395-.9788-4.5305-.0998-6.0269,1.9686-1.4965,2.0686-1.622,5.083-.2812,6.7512-1.4494,.902-2.5788,2.5783-2.9106,4.3202-.2447,1.2841,.1705,2.8244,1.3005,2.8243-.9504,.9513-1.0021,2.5661-.5165,3.6578,.7614,1.7115,2.6579,2.5544,4.4955,1.9981,.0761,2.0439,1.116,3.8304,2.6936,4.6271,.9262,.4678,2.3327,.4414,2.9765-.6611-.3022,2.2755,1.252,4.2972,3.2604,4.2412,.32-.0088,.7059-.1063,.8853-.4382,.8245,2.0827,3.6031,2.5831,5.4882,.9883,.7479,1.8191,2.7605,2.7043,4.672,2.055s3.5514-2.7753,3.8069-4.935c1.4273,.3205,3.0319-.8048,4.1927-2.1214,.7777-.8823,1.4762-1.9289,1.7026-3.0734,.2263-1.1444-.14-2.3792-1.047-2.7256,1.6522-.6754,2.8487-2.7704,2.8283-4.6257-.0203-1.8553-1.1132-3.3749-2.5816-4.0023,.9113-1.3,1.206-3.0473,.7379-4.3752-.4682-1.328-1.6791-2.1797-3.0322-2.1327,.7379-1.6484-.2073-3.3301-1.3688-4.242-.6591-.5176-1.418-.9261-2.2748-.9859-.8328-.058-1.5745,.2789-2.3304,.8069-.3341-.6617-.3669-1.3809-1.081-1.7615Z" style="fill:#263238;"></path><path d="M189.9758,142.898c.0431-.0159,4.0087,6.8749,3.8742,12.074,0,0,1.4165-1.9003,.1366-7.6826-.9737-4.3985-2.6743-4.6866-2.6743-4.6866l-1.3365,.2952Z"></path><path d="M185.8542,193.305c7.9796-7.2028,5.5616-11.768,5.5616-11.768-3.338-4.0658-3.1261-10.3371-2.9949-15.4954l-9.0633,11.0658c1.4786,3.4162,2.0597,5.3365-.0718,6.6545-.0258,.0035-.2609,5.6219,6.5684,9.5431Z" style="fill:#ffa666;"></path><path d="M180.5238,180.5403c-.2614-1.186-.6614-2.3371-1.1919-3.4294l8.1533-9.9574,.6945,.6653s-.3353,8.5432-7.6559,12.7215Z" style="isolation:isolate; opacity:.1;"></path><g><g><path d="M189.3719,150.9296c.8649,10.4607,1.4499,14.8585-2.9149,21.1898-6.5652,9.5233-19.339,8.9508-23.2476-.8822-3.5181-8.8502-4.3413-24.47,5.0059-30.5717,9.209-6.0115,20.2918-.1967,21.1566,10.2641Z" style="fill:#ffa666;"></path><path d="M177.404,157.4747c.1962,.9603-.1806,1.8915-.8419,2.0802-.661,.1888-1.356-.4365-1.5521-1.3966-.1964-.9601,.1805-1.8917,.8416-2.0804,.6609-.1888,1.3559,.4366,1.5524,1.3968Z" style="fill:#263238;"></path><path d="M178.1877,152.527c-.1288,.0363-.2686,.0201-.3861-.057-1.8322-1.2082-3.5355-.3956-3.5552-.3863-.2523,.1212-.5454,.0155-.6509-.2449-.1047-.2603,.0167-.572,.2718-.6978,.089-.0429,2.2263-1.065,4.5,.4351,.2263,.1495,.2836,.471,.1279,.718-.0755,.1187-.1867,.199-.3075,.2329Z" style="fill:#263238;"></path><path d="M162.4845,153.7792c-.1264-.0138-.2446-.0732-.3258-.1766-.1676-.2136-.1159-.5319,.1144-.7109,2.3134-1.7937,4.5524-1.1436,4.6474-1.1141,.2668,.081,.4004,.3623,.2982,.6289-.1014,.266-.3997,.4162-.6661,.3368-.0873-.0267-1.8325-.5056-3.6716,.9211-.1191,.0922-.2627,.1296-.3965,.1148Z" style="fill:#263238;"></path><path d="M169.1414,157.3881s-.9339,4.1365-2.3291,6.8578c-.2438,.4758,.0604,1.054,.5863,1.1491,1.3535,.2447,2.7669-.44,2.7669-.44l-1.0241-7.5669Z" style="fill:#fe7f3a;"></path><path d="M176.0939,155.9954l-2.4642,.062s2.0509,1.3235,2.4642-.062Z" style="fill:#263238;"></path><path d="M167.3646,158.7157c.1961,.9602-.1807,1.8914-.842,2.0801-.661,.1888-1.356-.4365-1.5521-1.3966-.1964-.9601,.1806-1.8916,.8417-2.0804,.661-.1889,1.3559,.4366,1.5524,1.3969Z" style="fill:#263238;"></path><path d="M165.9143,157.3079l-2.4643,.062s2.051,1.3235,2.4643-.062Z" style="fill:#263238;"></path><path d="M188.4178,168.9862c12.1054-10.6617,4.0074-34.2286-14.1167-31.6924-18.124,2.5362-13.3938,23.9405-13.3938,23.9405-1.3517-20.492,17.6962-17.3163,17.6962-17.3163-1.6561,8.6509,6.4372,12.2715,6.4372,12.2715,3.6726,4.8444,3.3771,12.7967,3.3771,12.7967Z" style="fill:#263238;"></path><path d="M193.9602,158.7733c-.8452,2.3249-2.5883,3.9977-4.3203,4.7702-2.605,1.1621-4.7816-2.9722-4.331-5.8658,.4058-2.6047,2.7979-4.7018,5.5441-4.6316,2.7056,.0693,4.0737,3.0688,3.1072,5.7272Z" style="fill:#ffa666;"></path><path d="M189.65869,160.87646c-.09326,0-.18311-.05273-.22559-.14258-.05957-.125-.00635-.27393,.11816-.33301,1.39648-.66406,1.89844-1.55957,2.07324-2.19385,.19336-.69873,.04688-1.26855-.13672-1.54395-.37109-.55664-1.24707-.87793-1.90869-.44775-.11572,.0752-.27051,.04297-.3457-.07324-.0752-.11572-.04248-.27051,.07324-.3457,.91748-.59863,2.08447-.17871,2.59717,.58936,.25391,.38037,.44043,1.09375,.20264,1.95459-.20264,.73486-.77344,1.76709-2.34033,2.51172-.03467,.0166-.07129,.02441-.10742,.02441Z" style="opacity:.2;"></path></g><g><path d="M170.8553,168.1031c1.0242,.9605,2.4622,2.9559,2.4622,2.9559,.2043-.0975,.4086-.1953,.6071-.3033,2.7371-1.3947,3.5463-2.9461,3.613-4.2427,.0339-.7095-.1641-1.3471-.3887-1.8345-.254-.5667-.5641-.9127-.5641-.9127-1.0097,1.6062-3.4611,3.1027-4.8039,3.8475-.5589,.3176-.9256,.4898-.9256,.4898Z" style="fill:#263238;"></path><path d="M171.7809,167.6133l.7483,.8525c2.575-1.3198,4.2107-2.5946,4.6197-3.7873-.254-.5667-.5641-.9127-.5641-.9127-1.0097,1.6062-3.4611,3.1027-4.8039,3.8475Z" style="fill:#fff;"></path><path d="M173.9246,170.7557c2.7371-1.3947,3.5463-2.9461,3.613-4.2427-.9144,.5111-1.96,1.2292-2.7324,2.1509-.5935,.7022-.8181,1.4345-.8806,2.0918Z" style="fill:#d7504d;"></path></g></g><path d="M160.7561,150.4996s7.981-1.2901,20.2083-.6897c9.7396,.4783,12.7753,1.8435,12.7753,1.8435,0,0-.6743-3.1732-1.7746-5.0658s-22.3672-2.6492-29.9049-.5137c0,0-1.0218,2.3158-1.3041,4.4257Z" style="fill:#7E57C2;"></path></g></g></g><g id="freepik--Table--inject-2"><g><g><rect x="551.30579" y="287.7854" width="4.7935" height="143.9136" style="fill:#263238;"></rect><rect x="551.30579" y="287.7854" width="4.7935" height="143.9136" style="fill:#fff; opacity:.3;"></rect><rect x="551.30579" y="287.7854" width="4.7935" height="143.9136" style="opacity:.3;"></rect></g><g><rect x="360.61369" y="286.0307" width="4.7936" height="143.9136" style="fill:#263238;"></rect><rect x="360.61369" y="286.0307" width="4.7936" height="143.9136" style="fill:#fff; opacity:.3;"></rect><rect x="360.61369" y="286.0307" width="4.7936" height="143.9136" style="opacity:.3;"></rect></g><g><rect x="384.11729" y="286.0307" width="4.7936" height="143.9136" style="fill:#263238;"></rect><rect x="384.11729" y="286.0307" width="4.7936" height="143.9136" style="fill:#fff; opacity:.3;"></rect></g><g><rect x="199.1883" y="287.7854" width="4.6337" height="143.9136" style="fill:#263238;"></rect><rect x="199.1883" y="287.7854" width="4.6337" height="143.9136" style="fill:#fff; opacity:.3;"></rect></g></g><g><g><path d="M281.2367,255.0007v18.7027c0,.48259,.75,.48339,.75,0v-18.7027c0-.48259-.75-.48339-.75,0h0Z" style="fill:#263238;"></path><path d="M286.2915,255.0007v18.7027c0,.48259,.75,.48339,.75,0v-18.7027c0-.48259-.75-.48339-.75,0h0Z" style="fill:#263238;"></path><path d="M291.3463,255.0007v18.7027c0,.48259,.75,.48339,.75,0v-18.7027c0-.48259-.75-.48339-.75,0h0Z" style="fill:#263238;"></path><path d="M296.4011,255.0007v18.7027c0,.48259,.75,.48339,.75,0v-18.7027c0-.48259-.75-.48339-.75,0h0Z" style="fill:#263238;"></path><path d="M301.4559,255.0007v18.7027c0,.48259,.75,.48339,.75,0v-18.7027c0-.48259-.75-.48339-.75,0h0Z" style="fill:#263238;"></path><path d="M306.5107,255.0007v18.7027c0,.48259,.75,.48339,.75,0v-18.7027c0-.48259-.75-.48339-.75,0h0Z" style="fill:#263238;"></path><path d="M311.5655,255.0007v18.7027c0,.48259,.75,.48339,.75,0v-18.7027c0-.48259-.75-.48339-.75,0h0Z" style="fill:#263238;"></path><path d="M316.6203,255.0007v18.7027c0,.48259,.75,.48339,.75,0v-18.7027c0-.48259-.75-.48339-.75,0h0Z" style="fill:#263238;"></path><path d="M321.675,255.0007v18.7027c0,.48259,.75,.48339,.75,0v-18.7027c0-.48259-.75-.48339-.75,0h0Z" style="fill:#263238;"></path><path d="M326.72979,255.0007v18.7027c0,.48259,.75,.48339,.75,0v-18.7027c0-.48259-.75-.48339-.75,0h0Z" style="fill:#263238;"></path><path d="M331.78459,255.0007v18.7027c0,.48259,.75,.48339,.75,0v-18.7027c0-.48259-.75-.48339-.75,0h0Z" style="fill:#263238;"></path><path d="M336.83939,255.0007v18.7027c0,.48259,.75,.48339,.75,0v-18.7027c0-.48259-.75-.48339-.75,0h0Z" style="fill:#263238;"></path><path d="M341.89419,255.0007v18.7027c0,.48259,.75,.48339,.75,0v-18.7027c0-.48259-.75-.48339-.75,0h0Z" style="fill:#263238;"></path><path d="M346.949,255.0007v18.7027c0,.48259,.75,.48339,.75,0v-18.7027c0-.48259-.75-.48339-.75,0h0Z" style="fill:#263238;"></path><path d="M352.00379,255.0007v18.7027c0,.48259,.75,.48339,.75,0v-18.7027c0-.48259-.75-.48339-.75,0h0Z" style="fill:#263238;"></path><path d="M357.05859,255.0007v18.7027c0,.48259,.75,.48339,.75,0v-18.7027c0-.48259-.75-.48339-.75,0h0Z" style="fill:#263238;"></path><path d="M362.11339,255.0007v18.7027c0,.48259,.75,.48339,.75,0v-18.7027c0-.48259-.75-.48339-.75,0h0Z" style="fill:#263238;"></path><path d="M367.16819,255.0007v18.7027c0,.48259,.75,.48339,.75,0v-18.7027c0-.48259-.75-.48339-.75,0h0Z" style="fill:#263238;"></path><path d="M372.22289,255.0007v18.7027c0,.48259,.75,.48339,.75,0v-18.7027c0-.48259-.75-.48339-.75,0h0Z" style="fill:#263238;"></path><path d="M377.27769,255.0007v18.7027c0,.48259,.75,.48339,.75,0v-18.7027c0-.48259-.75-.48339-.75,0h0Z" style="fill:#263238;"></path><path d="M382.33249,255.0007v18.7027c0,.48259,.75,.48339,.75,0v-18.7027c0-.48259-.75-.48339-.75,0h0Z" style="fill:#263238;"></path><path d="M387.38729,255.0007v18.7027c0,.48259,.75,.48339,.75,0v-18.7027c0-.48259-.75-.48339-.75,0h0Z" style="fill:#263238;"></path><path d="M392.44209,255.0007v18.7027c0,.48259,.75,.48339,.75,0v-18.7027c0-.48259-.75-.48339-.75,0h0Z" style="fill:#263238;"></path><path d="M397.49689,255.0007v18.7027c0,.48259,.75,.48339,.75,0v-18.7027c0-.48259-.75-.48339-.75,0h0Z" style="fill:#263238;"></path><path d="M402.55169,255.0007v18.7027c0,.48259,.75,.48339,.75,0v-18.7027c0-.48259-.75-.48339-.75,0h0Z" style="fill:#263238;"></path><path d="M407.60649,255.0007v18.7027c0,.48259,.75,.48339,.75,0v-18.7027c0-.48259-.75-.48339-.75,0h0Z" style="fill:#263238;"></path><path d="M412.66129,255.0007v18.7027c0,.48259,.75,.48339,.75,0v-18.7027c0-.48259-.75-.48339-.75,0h0Z" style="fill:#263238;"></path><path d="M417.71609,255.0007v18.7027c0,.48259,.75,.48339,.75,0v-18.7027c0-.48259-.75-.48339-.75,0h0Z" style="fill:#263238;"></path><path d="M422.77079,255.0007v18.7027c0,.48259,.75,.48339,.75,0v-18.7027c0-.48259-.75-.48339-.75,0h0Z" style="fill:#263238;"></path><path d="M427.82559,255.0007v18.7027c0,.48259,.75,.48339,.75,0v-18.7027c0-.48259-.75-.48339-.75,0h0Z" style="fill:#263238;"></path><path d="M432.88039,255.0007v18.7027c0,.48259,.75,.48339,.75,0v-18.7027c0-.48259-.75-.48339-.75,0h0Z" style="fill:#263238;"></path><path d="M277.2959,258.8297h160.6202c.48259,0,.48339-.75,0-.75h-160.6202c-.48259,0-.48339,.75,0,.75h0Z" style="fill:#263238;"></path><path d="M277.2959,264.1831h160.6202c.48259,0,.48339-.75,0-.75h-160.6202c-.48259,0-.48339,.75,0,.75h0Z" style="fill:#263238;"></path><path d="M277.2959,269.5366h160.6202c.48259,0,.48339-.75,0-.75h-160.6202c-.48259,0-.48339,.75,0,.75h0Z" style="fill:#263238;"></path><path d="M438.74409,252.1372v33.8935c0,.48259,.75,.48339,.75,0v-33.8935c0-.48259-.75-.48339-.75,0h0Z" style="fill:#263238;"></path><path d="M277.5804,254.903h160.6202c.48259,0,.48339-.75,0-.75h-160.6202c-.48259,0-.48339,.75,0,.75h0Z" style="fill:#263238;"></path><path d="M277.5804,274.7198h160.6202c.48259,0,.48339-.75,0-.75h-160.6202c-.48259,0-.48339,.75,0,.75h0Z" style="fill:#263238;"></path></g><g><rect x="173.2011" y="278.2407" width="403.12239" height="9.5447" style="fill:#7E57C2;"></rect><rect x="370.84609" y="278.2407" width="205.47739" height="9.5447" style="opacity:.3;"></rect></g><path d="M276.9209,252.1372v35.483c0,.48259,.75,.48339,.75,0v-35.483c0-.48259-.75-.48339-.75,0h0Z" style="fill:#263238;"></path></g></g><g id="freepik--Ball--inject-2"><path d="M318.5789,233.5119c0,3.6149-2.9305,6.5454-6.5455,6.5454s-6.5454-2.9305-6.5454-6.5454,2.9305-6.5454,6.5454-6.5454,6.5455,2.9305,6.5455,6.5454Z" style="fill:#7E57C2;"></path></g><g id="freepik--Speed_line--inject-2"><path d="M157.62019,259.2549c18.82792-4.91817,39.84423-3.14823,57.68236,4.57448,5.04316,2.18335,9.84711,4.89444,14.28068,8.14392,.17542,.12857,.40325,.01435,.51307-.13453,6.75841-9.16204,16.65018-15.75972,27.69249-18.51527,.46803-.1168,.26976-.84028-.19938-.72321-11.24221,2.80543-21.26486,9.53869-28.14071,18.85993l.51307-.13453c-16.12335-11.81722-37.09465-16.60302-56.86346-15.2969-5.28954,.34948-10.54726,1.16279-15.6775,2.5029-.46661,.12189-.26876,.8455,.19938,.72321h0Z" style="fill:#7E57C2;"></path></g><g id="freepik--Character_2--inject-2"><g><g><path d="M559.47739,220.429c-3.9721,7.2574-8.1503,14.16-12.6948,21.0053-2.2894,3.4112-4.6627,6.7804-7.12,10.1077-2.4968,3.3939-5.1715,6.6533-8.013,9.7644l-1.1447,1.1447c-.4242,.4719-.8752,.9191-1.3507,1.3393-1.02719,.9223-2.1474,1.7356-3.3425,2.4267-1.9396,1.1191-3.94669,2.1169-6.00969,2.9877-3.92641,1.7056-7.81841,3.0449-11.72181,4.3384-7.7655,2.4862-7.0799,1.6242-15.0624,3.2867l-2.94079-5.6139c7.349-3.0678,7.51519-3.5302,14.704-6.7354,3.59429-1.6026,6.84779-3.5978,10.17889-5.3606,1.5749-.828,3.1034-1.7413,4.5788-2.7359,.3319-.2289,.5952-.4464,.8928-.6639,.1964-.1652,.3837-.341,.561-.5266,0,0,.4578-.5265,.7211-.8356l.8815-1.0531c4.771-6.0438,9.1783-12.3661,13.1984-18.9334,4.1667-6.6393,8.2647-13.5075,12.1567-20.2613l11.5272,6.3188Z" style="fill:#ff7a6d;"></path><g><path d="M485.79459,247.7787c5.7678,9.5405,1.4679,17.1875-6.593,22.0608s-16.8302,5.1275-22.598-4.413c-5.7679-9.5405-2.8211-20.7334,5.2398-25.6067,8.0608-4.8733,18.1833-1.5816,23.9512,7.9589Z" style="fill:#7E57C2;"></path><path d="M485.79459,247.7787c5.7678,9.5405,1.4679,17.1875-6.593,22.0608s-16.8302,5.1275-22.598-4.413c-5.7679-9.5405-2.8211-20.7334,5.2398-25.6067,8.0608-4.8733,18.1833-1.5816,23.9512,7.9589Z" style="opacity:.5;"></path><rect x="479.91344" y="267.11727" width="5.90701" height="15.44106" transform="translate(-72.54501 289.46188) rotate(-31.15589)" style="fill:#7E57C2;"></rect><rect x="479.91344" y="267.11727" width="5.90701" height="15.44106" transform="translate(-72.54501 289.46188) rotate(-31.15589)" style="opacity:.5;"></rect></g><path d="M490.59349,270.9987s-8.0013-2.0386-9.1433-1.1481c-1.142,.8906-1.5459,2.0641-1.5459,2.0641,0,0-2.99229,.5247-3.2904,2.1332-.253,1.365,1.4695,1.4836,1.4695,1.4836,0,0-1.0303,2.642,.84861,2.8724,0,0-.62551,2.0626,1.52489,2.5702,0,0,.6917,1.8131,2.2634,1.694,1.57171-.1189,7.3722-2.0983,9.7554-4.1084,.7217-.6087,.93531-1.1308,.8645-2.1068l11.9117-3.3002-5.1687-5.7348-9.4897,3.5808Z" style="fill:#ff7a6d;"></path><path d="M476.58359,249.48181c-1.95054,4.97538-4.47385,9.70667-7.5045,14.10772-.27441,.3985,.37531,.77396,.6476,.37854,3.06906-4.45684,5.60519-9.24931,7.5801-14.28688,.17623-.44953-.54873-.64444-.72321-.19938h0Z" style="fill:#263238;"></path><path d="M472.30759,250.41773l-3.69767,7.87717-.52243,1.11293c-.20391,.43439,.44244,.8156,.6476,.37854l3.69767-7.87717,.52243-1.11293c.20391-.43439-.44244-.8156-.6476-.37854h0Z" style="fill:#263238;"></path></g><g><g><path d="M554.23929,169.5316c.09171-.8284-.2786-1.5609-.8329-1.6085-.5542-.0474-1.0556,.5744-1.145,1.4157-.08939,.8414,.27861,1.5611,.8329,1.6086,.5544,.0474,1.0686-.5769,1.145-1.4158Z" style="fill:#263238;"></path><path d="M554.54609,170.728l-5.3983,4.9573c1.1921,1.2712,2.9136,1.906,4.6455,1.7134l.7528-6.6707Z" style="fill:#f54948;"></path><path d="M555.912,167.7154c-.16191-.0225-.303-.121-.38021-.2649-.5462-1.1301-1.5994-1.9313-2.8343-2.1564-.2661-.0295-.458-.2692-.4284-.5353v-.0005c.0232-.2712,.2598-.4736,.5312-.4543,1.5645,.2619,2.9071,1.2609,3.6074,2.6839,.1308,.2304,.0525,.5227-.1756,.6571h0c-.0913,.069-.2082,.0947-.32009,.0704Z" style="fill:#263238;"></path><path d="M583.04609,173.3349c-2.3563,10.3646-3.1347,14.8032-9.3053,19.3125-8.9905,4.1474-21.5287,1.62-22.3004-9.2644-.707-9.7779,3.26261-25.0496,14.2173-27.5908,7.8034-1.8163,15.6015,3.037,17.418,10.8402,.5135,2.2058,.50331,4.5012-.0296,6.7024v.0001Z" style="fill:#ff7a6d;"></path><path d="M562.83119,189.9224s-6.7517,2.6695-10.617-2.9503c1.8192,4.7471,6.466,7.139,11.6023,7.5002l1.4781-1.4887-1.3603-2.3263-1.1031-.7349Z" style="isolation:isolate; opacity:.2;"></path><path d="M578.43259,203.644s-6.5928-1.8849-4.2829-14.2246c0,0-5.6944-3.9354-10.3618-.9991-4.6674,2.9367,1.4638,12.8243-4.1652,15.5197,0,0,3.8457,3.7197,18.8099-.296Z" style="fill:#ff7a6d;"></path><path d="M561.04679,174.706c1.285-1.7848-2.3411-4.7864-1.4241-6.7855-.1505-5.2604,.8601-4.8015,.6964-10.4165s6.06791-3.293,6.06791-3.293c0,0,13.39859-3.9891,17.74009,9.8922,6.4071,6.8901,6.0155,17.6695-.8746,24.0768-3.1514,2.9304-7.2951,4.5595-11.59849,4.5602l-.93981-.0452c-3.8683-.5357-6.9536-3.4976-7.6468-7.3409l-2.0206-10.6481Z" style="fill:#263238;"></path><path d="M581.13159,167.9793c-.3587-3.2773,.01941-6.0072,3.2965-6.3659,3.2772-.3587,3.9475,2.2772,4.3062,5.5544,.35871,3.2773,.241,5.974-3.0385,6.3198-3.2795,.3457-4.1926-2.2335-4.5642-5.5083Z" style="fill:#7E57C2;"></path><path d="M563.82609,173.571c-1.8443,1.1479-3.151,2.9875-3.6277,5.107-.623,2.7736,1.9409,4.0864,4.5611,3.1793,2.3327-.8024,5.4373-3.2468,4.9013-6.0265-.3891-2.0036-2.32879-3.3123-4.3323-2.9234-.5443,.1057-1.0577,.3325-1.5024,.6636Z" style="fill:#ff7a6d;"></path><path d="M561.15139,153.069c1.1334,1.1288,2.3702,2.8383,1.6225,4.3163-.4212,.8473-1.3814,1.2849-1.9348,2.0626-.5282,.9161-.7492,1.9771-.63109,3.028,.04219,3.8243,.39369,7.639,1.05129,11.4068-3.377-4.003-6.9805-8.2319-8.0072-13.3866-.3525-1.532-.3124-3.1279,.11691-4.6401,.46229-1.5218,1.60849-2.7406,3.09909-3.2954,1.4854-.4782,4.6833,.5084,4.6833,.5084Z" style="fill:#263238;"></path></g><path d="M585.82349,169.1895l-1.9254-2.2645c.8232-5.3647,6.1466-9.6395,11.5624-9.285,3.55151,.2325,6.7654,2.1656,9.569,4.358,2.8038,2.1924,5.38351,4.7125,8.4856,6.4572,3.1023,1.7447,6.9416,2.6367,10.2354,1.2881,2.4532-1.0044,4.3521-3.1362,6.8776-3.9418,3.82191-1.2192,8.4032,1.4711,9.2005,5.4026,.747,3.6843-1.9911,7.6588-5.6257,8.4454,1.4554,.0427,2.7659,1.7151,2.5799,3.2751-.2175,1.824-1.75579,3.2131-3.3694,4.0908-3.766,2.0484-8.5116,2.1839-12.3883,.3538,.5837,1.3991-.1266,3.0883-1.3248,4.0172-1.1981,.929-2.7651,1.2343-4.2786,1.3228-6.6332,.3878-13.05769-2.9042-17.8809-7.4744-4.8233-4.5703-8.30079-10.3463-11.7173-16.0453Z" style="fill:#263238;"></path></g><g><g><path d="M559.77769,282.7823s-41.5964,28.645-60.65769,52.3127c-1.89871,2.3576-3.27581,5.0824-4.06171,8.0057-8.3552,31.081-22.4269,79.9078-22.4269,79.9078l9.3861,3.3556s36.0243-55.3938,34.2729-78.5626c58.4485-36.6305,87.8331-70.9716,87.8331-70.9716l-44.3458,5.9524Z" style="fill:#ff7a6d;"></path><path d="M536.10279,300.4558s3.86821,13.945,19.626,19.9935l3.37921-2.6157-19.79531-19.9045-3.2099,2.5267Z" style="opacity:.3;"></path></g><polygon points="473.03419 420.7636 477.31139 406.6672 491.83669 410.2058 482.01749 427.0476 474.89819 426.1378 473.03419 420.7636" style="fill:#263238;"></polygon><g><g><path d="M471.779,419.8435c1.863-.3729,3.01089,.0233,3.15829,1.4952,.8802-.0047,1.711,.4156,2.25771,1.0902,2.35769,2.9103,4.00029,1.7969,6.33269-.9634,1.5444-.1806,2.0285,1.5151,2.173,1.9707l3.3036,10.0744c.2856,.8414-.1911,1.7224-1.0652,1.968-.1555,.0437-.3175,.0651-.481,.0636-4.72409,.0249-6.95909,.0368-12.8385,.0681l-17.9814,.0953c-4.9019,.0261-6.1024-4.6806-4.1003-5.1271,9.0045-1.962,15.334-4.5446,18.0416-7.0789,.503-.4439,.6874-2.2869,1.19951-3.6561Z" style="fill:#7E57C2;"></path><g style="isolation:isolate; opacity:.4;"><path d="M471.779,419.8435c1.863-.3729,3.01089,.0233,3.15829,1.4952,.8802-.0047,1.711,.4156,2.25771,1.0902,2.35769,2.9103,4.00029,1.7969,6.33269-.9634,1.5444-.1806,2.0285,1.5151,2.173,1.9707l3.3036,10.0744c.2856,.8414-.1911,1.7224-1.0652,1.968-.1555,.0437-.3175,.0651-.481,.0636-4.72409,.0249-6.95909,.0368-12.8385,.0681l-17.9814,.0953c-4.9019,.0261-6.1024-4.6806-4.1003-5.1271,9.0045-1.962,15.334-4.5446,18.0416-7.0789,.503-.4439,.6874-2.2869,1.19951-3.6561Z"></path></g><path d="M456.299,434.418c3.32939,.7294,7.99059-2.1445,12.23569-2.1716,4.2449-.0271,4.2449,1.6086,11.6528,2.108,7.408,.4995,8.4022-2.108,8.4022-2.108l.0004,.0008,.4142,1.2634c.2856,.8414-.1911,1.7224-1.06529,1.9679-.15531,.0438-.31741,.0653-.481,.0636-4.72391,.025-6.959,.037-12.83841,.0682l-17.9814,.0952c-2.6149,.014-4.1666-1.3189-4.7506-2.6334,.5429,.2466,1.92641,.8015,4.41141,1.3459Z" style="fill:#7E57C2;"></path><path d="M482.01749,430.0684c-2.40765,.26572-4.83539-.23679-6.93003-1.4564-.41794-.24335-.79592,.40458-.37854,.6476,2.19912,1.28045,4.77764,1.83812,7.30857,1.5588,.47451-.05237,.47985-.80296,0-.75h0Z" style="fill:#fff;"></path></g><path d="M469.93036,426.78243c-.48337-.60656-.96679-1.21309-1.4501-1.8197-.1228-.15413-.40386-.13777-.53033,0-.15016,.16358-.13101,.3659,0,.53033,.48331,.60661,.96673,1.21314,1.4501,1.8197,.12282,.15412,.40385,.13778,.53033,0,.15015-.16357,.13103-.36591,0-.53033h0Z"></path><path d="M467.68146,427.97563c-.13079-.1336-.25599-.27244-.37439-.41715-.03044-.0372-.06033-.07483-.09001-.11264,.02175,.02771,.02101,.0276,.00012-.00036l-.03835-.05134c-.05712-.07731-.11245-.15595-.1659-.23584-.20804-.3109-.3866-.64042-.53562-.98347-.07845-.1806-.35684-.23526-.51307-.13453-.18733,.12078-.21847,.31985-.13453,.51307,.31492,.72493,.76875,1.388,1.32144,1.9526,.13745,.14041,.39432,.14816,.53033,0,.13863-.15101,.14666-.38051,0-.53033h0Z"></path><path d="M465.23806,429.09693c-.13078-.1336-.25598-.27244-.37437-.41715-.03044-.0372-.06033-.07482-.09-.11264,.02175,.02771,.02101,.0276,.00012-.00036l-.03835-.05134c-.05712-.07731-.11244-.15595-.16589-.23584-.20801-.31091-.38656-.64043-.53558-.98347-.07845-.1806-.35684-.23526-.51307-.13453-.18733,.12078-.21847,.31985-.13453,.51307,.31491,.72491,.76866,1.38801,1.32134,1.9526,.13745,.14042,.39432,.14816,.53033,0,.13863-.15102,.14666-.38051,0-.53033h0Z"></path></g></g><g><path d="M575.14949,280.7087s30.5407,77.3018,49.2222,100.4935c27.3584,16.1632,66.7567,32.8204,66.7567,32.8204l2.62561-8.4237s-32.59151-36.8625-55.35971-41.4413c-19.3912-66.1754-25.0346-88.4055-25.0346-88.4055l-38.2102,4.9566Z" style="fill:#ff7a6d;"></path><path d="M666.82439,403.1199l9.8734-14.6443c5.1266,4.217,11.8108,11.0217,18.9113,18.5179l-5.577,6.6425c-8.5848-3.3956-16.4955-6.8784-23.2077-10.5161Z" style="fill:#263238;"></path><path d="M592.11559,320.8301l2.5015,5.5516s19.22891-.2188,30.2547-8.9687l-.4727-2.8961-32.2835,6.3132Z" style="opacity:.3;"></path><g><g><path d="M683.76689,410.618c.9024-1.672,1.9403-2.3024,3.1672-1.4761,.5584-.6805,1.4123-1.0515,2.2806-1.0416,3.7452,.0436,3.937-1.9315,3.3018-5.489,.847-1.3039,2.4612-.5938,2.9041-.4141l9.863,3.8897c.8299,.3174,1.2035,1.2468,.8345,2.0764-.0656,.1475-.1526,.2859-.2582,.4108-2.997,3.6517-4.4148,5.3795-8.1447,9.9245l-11.4074,13.8999c-3.1097,3.7894-7.4986,1.7082-6.564-.1178,4.2391-8.1828,6.2928-14.7032,6.071-18.4052-.0204-.6706-1.3212-1.9892-2.0479-3.2575Z" style="fill:#7E57C2;"></path><g style="isolation:isolate; opacity:.4;"><path d="M683.76689,410.618c.9024-1.672,1.9403-2.3024,3.1672-1.4761,.5584-.6805,1.4123-1.0515,2.2806-1.0416,3.7452,.0436,3.937-1.9315,3.3018-5.489,.847-1.3039,2.4612-.5938,2.9041-.4141l9.863,3.8897c.8299,.3174,1.2035,1.2468,.8345,2.0764-.0656,.1475-.1526,.2859-.2582,.4108-2.997,3.6517-4.4148,5.3795-8.1447,9.9245l-11.4074,13.8999c-3.1097,3.7894-7.4986,1.7082-6.564-.1178,4.2391-8.1828,6.2928-14.7032,6.071-18.4052-.0204-.6706-1.3212-1.9892-2.0479-3.2575Z"></path></g><path d="M685.10019,431.8375c2.6872-2.0967,3.4514-7.519,6.1409-10.8036,2.6894-3.2843,3.9484-2.2399,9.0626-7.6225s3.7422-7.8125,3.7422-7.8125l.0009,.0002,1.2368,.4878c.8299,.3174,1.2035,1.2468,.83441,2.0764-.06551,.1475-.15251,.2859-.25811,.4108-2.997,3.6516-4.4148,5.3795-8.1447,9.9244l-11.4074,13.9c-1.6589,2.0215-3.6754,2.3646-5.0601,1.9748,.5365-.2603,1.8469-.9709,3.8525-2.5358Z" style="fill:#7E57C2;"></path><path d="M698.1382,409.31663c-1.30492,1.98685-3.24751,3.53007-5.4817,4.34437-.44988,.16397-.2556,.88904,.19938,.72321,2.4261-.88424,4.51189-2.52996,5.92993-4.68903,.26573-.4046-.38343-.78076-.6476-.37854h0Z" style="fill:#fff;"></path></g><path d="M687.96179,416.4695c-.7755-.0152-1.551-.0305-2.3265-.0458-.19624-.00387-.38395,.17525-.375,.375,.00925,.20649,.16473,.37085,.375,.375,.7755,.0153,1.551,.0306,2.3265,.0458,.19624,.00385,.38395-.17523,.375-.375-.00925-.20647-.16473-.37088-.375-.375h0Z"></path><path d="M687.44419,418.9622c-.37119,.03029-.74408,.02903-1.11485-.00699-.31913-.031-.68605-.10461-1.03616-.20602-.18833-.05455-.41673,.06625-.46129,.26191-.04564,.20038,.06022,.40288,.26191,.46129,.7599,.22009,1.56174,.30416,2.35039,.2398,.19502-.01592,.38458-.16108,.375-.375-.00849-.1895-.16562-.39209-.375-.375h0Z"></path><path d="M686.74709,421.5586c-.37119,.03029-.74407,.02903-1.11483-.00699-.3191-.031-.68599-.10461-1.03608-.20602-.18833-.05455-.41673,.06625-.46129,.26191-.04564,.20039,.06022,.40287,.26191,.46129,.75986,.22011,1.56168,.30415,2.35029,.2398,.19502-.01592,.38458-.16108,.375-.375-.00849-.1895-.16562-.39209-.375-.375h0Z"></path></g></g><g><path d="M592.14309,200.1759c1.6155-.1509,12.5068,8.472,14.2068,9.4848,9.4214,5.6129,0,21.3544-8.6202,17.4883l-1.21769,.8481s-2.59831-2.388-11.20091-10.5691c-8.9549-8.536-1.7065-16.4871,6.832-17.2521Z" style="fill:#7E57C2;"></path><path d="M550.23649,206.3904s-12.248,15.2805,7.4647,51.0477c0,0,1.0793,7.4926,.98881,13.4127l50.96159-5.4239c-.7097-7.1439-17.3485-30.2556-14.7043-64.5566,0,0-2.15429-1.7316-8.1719-1.2768-7.3883,.4938-14.7382,1.3695-22.0126,2.6228-4.956,1.0542-9.8126,2.4497-14.5263,4.1741Z" style="fill:#7E57C2;"></path><path d="M550.23649,206.3904s-12.248,15.2805,7.4647,51.0477c0,0,1.0793,7.4926,.98881,13.4127l50.96159-5.4239c-.7097-7.1439-17.3485-30.2556-14.7043-64.5566,0,0-2.15429-1.7316-8.1719-1.2768-7.3883,.4938-14.7382,1.3695-22.0126,2.6228-4.956,1.0542-9.8126,2.4497-14.5263,4.1741Z" style="opacity:.5;"></path><path d="M562.60239,213.4577c3.55061,9.7528-13.1297,31.2161-13.1297,31.2161l-16.4952-11.1494s4.7644-10.2507,9.3089-18.2178c7.6351-13.3587,15.451-11.8421,20.316-1.8489Z" style="fill:#7E57C2;"></path><path d="M549.47159,244.61987c2.74031-3.95371,5.48069-7.90739,8.221-11.8611,.27559-.39762-.37421-.77299-.6476-.37854-2.74031,3.95371-5.48069,7.90739-8.221,11.8611-.27559,.39762,.37421,.77299,.6476,.37854h0Z" style="fill:#263238;"></path><path d="M597.5036,228.76541c-1.21955-6.96466-2.16346-13.97294-2.82972-21.01211-.04509-.47635-.79553-.48105-.75,0,.67255,7.10563,1.62544,14.18107,2.85651,21.21149,.0831,.47456,.806,.27342,.72321-.19938h0Z" style="fill:#263238;"></path></g><g><path d="M580.45669,296.6193s5.1882,14.2203,9.0115,24.1335c8.8829,.7211,34.7311-3.5481,39.6647-8.4016-6.2466-9.4461-7.9705-26.5723-17.1968-39.7592-21.6578,2.5298-31.4794,24.0273-31.4794,24.0273Z" style="fill:#7E57C2;"></path><polygon points="559.47739 270.8007 559.108 281.3947 613.21809 274.3205 607.514 265.4269 559.47739 270.8007" style="fill:#7E57C2;"></polygon><path d="M559.108,281.3947s-12.63191,9.5328-23.00521,14.63c2.8617,8.4365,16.0111,23.2368,24.18421,24.0038,8.80279-4.0752,43.61329-20.5131,46.06289-45.8568-10.6457,1.1447-47.24189,7.223-47.24189,7.223Z" style="fill:#7E57C2;"></path><path d="M583.55886,306.8669c7.67317-4.08378,14.21747-10.08293,18.96533-17.36263,.26444-.40546-.38464-.78173-.6476-.37854-4.67953,7.17493-11.1354,13.06956-18.69627,17.09357-.42624,.22685-.04778,.8745,.37854,.6476h0Z" style="fill:#263238;"></path><path d="M585.60859,310.5609s12.9501-8.6634,13.7103-17.2483c0,0-7.011,8.0079-15.2065,13.2305l1.4962,4.0178Z" style="opacity:.3;"></path></g></g></g></svg>
