<svg xmlns="http://www.w3.org/2000/svg" viewBox="0 0 750 500"><g id="freepik--background-complete--inject-5"><g><g><g><g><g><rect x="24.7161" y="39.6493" width="51.58242" height="75.5706" transform="translate(101.01462 154.8692) rotate(180)" style="fill:#f5f5f5;"></rect><rect x="29.1452" y="41.8555" width="43.1239" height="10.0751" transform="translate(101.4143 93.7861) rotate(180)" style="fill:#ebebeb;"></rect><polygon points="32.3717 39.6493 36.9118 51.9306 29.1452 51.9306 29.1452 39.6493 32.3717 39.6493" style="fill:#e0e0e0;"></polygon><rect x="29.1452" y="54.1368" width="43.1239" height="10.075" transform="translate(101.4143 118.3486) rotate(180)" style="fill:#ebebeb;"></rect><polygon points="32.3717 51.9306 36.9118 64.2118 29.1452 64.2118 29.1452 51.9306 32.3717 51.9306" style="fill:#e0e0e0;"></polygon><rect x="29.1452" y="66.6589" width="43.1239" height="10.075" transform="translate(101.4143 143.3928) rotate(180)" style="fill:#ebebeb;"></rect><polygon points="32.3717 64.4526 36.9118 76.7339 29.1452 76.7339 29.1452 64.4526 32.3717 64.4526" style="fill:#e0e0e0;"></polygon><rect x="29.1452" y="78.9221" width="43.1239" height="10.0751" transform="translate(101.4143 167.9193) rotate(180)" style="fill:#ebebeb;"></rect><polygon points="32.3717 76.7159 36.9118 88.9972 29.1452 88.9972 29.1452 76.7159 32.3717 76.7159" style="fill:#e0e0e0;"></polygon><rect x="29.1452" y="91.1855" width="43.1239" height="10.075" transform="translate(101.4143 192.446) rotate(180)" style="fill:#ebebeb;"></rect><polygon points="32.3717 88.9791 36.9118 101.2605 29.1452 101.2605 29.1452 88.9791 32.3717 88.9791" style="fill:#e0e0e0;"></polygon><rect x="29.1452" y="103.4487" width="43.1239" height="10.075" transform="translate(101.4143 216.9724) rotate(180)" style="fill:#ebebeb;"></rect><polygon points="32.3717 101.2424 36.9118 113.5237 29.1452 113.5237 29.1452 101.2424 32.3717 101.2424" style="fill:#e0e0e0;"></polygon></g><rect x="76.29852" y="72.4803" width="206.03317" height="2.454" transform="translate(358.63021 147.4146) rotate(180)" style="fill:#ebebeb;"></rect><rect x="76.29852" y="75.0139" width="206.03317" height="17.4022" transform="translate(358.63021 167.43) rotate(180)" style="fill:#f5f5f5;"></rect><rect x="76.12283" y="94.2699" width="206.03326" height="17.4023" transform="translate(358.27892 205.9421) rotate(180)" style="fill:#f5f5f5;"></rect><rect x="76.29852" y="48.7427" width="206.03317" height="23.6456" transform="translate(358.63021 121.131) rotate(180)" style="fill:#f5f5f5;"></rect><rect x="76.29852" y="46.5749" width="206.03317" height="2.4541" transform="translate(358.63021 95.6039) rotate(180)" style="fill:#ebebeb;"></rect><rect x="76.12283" y="91.6952" width="206.03326" height="2.4541" transform="translate(358.27892 185.8445) rotate(180)" style="fill:#ebebeb;"></rect><rect x="24.7162" y="111.0515" width="444.90749" height="31.897" transform="translate(494.33989 254) rotate(180)" style="fill:#ebebeb;"></rect></g><g><g><rect x="660.44549" y="39.6493" width="51.5824" height="75.5706" style="fill:#f5f5f5;"></rect><rect x="664.47489" y="41.8555" width="43.1239" height="10.0751" style="fill:#ebebeb;"></rect><polygon points="704.37228 39.6493 699.83218 51.9306 707.59878 51.9306 707.59878 39.6493 704.37228 39.6493" style="fill:#e0e0e0;"></polygon><rect x="664.47489" y="54.1368" width="43.1239" height="10.075" style="fill:#ebebeb;"></rect><polygon points="704.37228 51.9306 699.83218 64.2118 707.59878 64.2118 707.59878 51.9306 704.37228 51.9306" style="fill:#e0e0e0;"></polygon><rect x="664.47489" y="66.6589" width="43.1239" height="10.075" style="fill:#ebebeb;"></rect><polygon points="704.37228 64.4526 699.83218 76.7339 707.59878 76.7339 707.59878 64.4526 704.37228 64.4526" style="fill:#e0e0e0;"></polygon><rect x="664.47489" y="78.9221" width="43.1239" height="10.0751" style="fill:#ebebeb;"></rect><polygon points="704.37228 76.7159 699.83218 88.9972 707.59878 88.9972 707.59878 76.7159 704.37228 76.7159" style="fill:#e0e0e0;"></polygon><rect x="664.47489" y="91.1855" width="43.1239" height="10.075" style="fill:#ebebeb;"></rect><polygon points="704.37228 88.9791 699.83218 101.2605 707.59878 101.2605 707.59878 88.9791 704.37228 88.9791" style="fill:#e0e0e0;"></polygon><rect x="664.47489" y="103.4487" width="43.1239" height="10.075" style="fill:#ebebeb;"></rect><polygon points="704.37228 101.2424 699.83218 113.5237 707.59878 113.5237 707.59878 101.2424 704.37228 101.2424" style="fill:#e0e0e0;"></polygon></g><rect x="279.62279" y="72.4803" width="380.67369" height="2.454" style="fill:#ebebeb;"></rect><rect x="279.62279" y="75.0139" width="380.67369" height="17.4022" style="fill:#f5f5f5;"></rect><rect x="279.94719" y="94.2699" width="380.67399" height="17.4023" style="fill:#f5f5f5;"></rect><rect x="279.62279" y="48.7427" width="380.67369" height="23.6456" style="fill:#f5f5f5;"></rect><rect x="279.62279" y="46.5749" width="380.67369" height="2.4541" style="fill:#ebebeb;"></rect><rect x="279.94719" y="91.6952" width="380.67399" height="2.4541" style="fill:#ebebeb;"></rect><rect x="454.58789" y="111.0515" width="257.43999" height="31.897" style="fill:#ebebeb;"></rect></g></g><polygon points="726.14818 219.653 314.86009 219.653 23.8518 219.653 23.8518 122.8228 358.71359 122.8228 726.14818 122.8228 726.14818 219.653" style="fill:#fafafa;"></polygon><polygon points="23.8518 219.653 23.8518 122.8228 150.6378 122.8228 90.0878 219.653 23.8518 219.653" style="fill:#f5f5f5;"></polygon><rect x="159.8438" y="157.8792" width="123.66659" height="29.1116" style="fill:#f5f5f5;"></rect><rect x="516.723" y="157.8792" width="123.66649" height="29.1116" style="fill:#f5f5f5;"></rect><polygon points="300.32459 218.9246 354.84629 123.4273 491.897 122.8228 442.91069 218.9246 300.32459 218.9246" style="fill:#f5f5f5;"></polygon><polygon points="712.444 122.8228 669.25239 219.653 726.14818 219.653 726.14818 122.8228 712.444 122.8228" style="fill:#f5f5f5;"></polygon><path d="M726.14808,122.8228c0,.1438-157.0335,.2604-350.69908,.2604-193.733,0-350.7329-.1166-350.7329-.2604s156.9999-.2604,350.7329-.2604c193.66559,0,350.69908,.1166,350.69908,.2604Z" style="fill:#ebebeb;"></path></g><ellipse cx="136.308" cy="60.5655" rx="5.4593" ry="7.9697" style="fill:#ebebeb;"></ellipse><path d="M196.2536,83.715c0,3.5486-1.9705,6.4252-4.4013,6.4252s-4.4014-2.8766-4.4014-6.4252,1.9706-6.4253,4.4014-6.4253,4.4013,2.8767,4.4013,6.4253Z" style="fill:#ebebeb;"></path><path d="M316.26689,83.715c0,3.5486-1.9705,6.4252-4.4013,6.4252s-4.4013-2.8766-4.4013-6.4252,1.9705-6.4253,4.4013-6.4253,4.4013,2.8767,4.4013,6.4253Z" style="fill:#ebebeb;"></path><ellipse cx="178.1227" cy="86.2023" rx="2.6975" ry="3.9379" style="fill:#ebebeb;"></ellipse><ellipse cx="356.06929" cy="63.16213" rx="5.45929" ry="7.96978" style="fill:#ebebeb;"></ellipse><ellipse cx="595.79169" cy="63.16213" rx="5.4593" ry="7.96978" style="fill:#ebebeb;"></ellipse><path d="M162.4245,60.7901c0,3.0166-2.0099,5.4621-4.4891,5.4621s-4.4891-2.4455-4.4891-5.4621,2.0098-5.4622,4.4891-5.4622,4.4891,2.4455,4.4891,5.4622Z" style="fill:#ebebeb;"></path><ellipse cx="146.1572" cy="102.9401" rx="4.4891" ry="5.4621" style="fill:#ebebeb;"></ellipse><ellipse cx="327.66659" cy="86.2023" rx="4.4891" ry="5.4621" style="fill:#ebebeb;"></ellipse><path d="M458.89959,82.8565c0,2.2515-.9653,4.0767-2.1559,4.0767s-2.1558-1.8252-2.1558-4.0767,.9652-4.0767,2.1558-4.0767,2.1559,1.8252,2.1559,4.0767Z" style="fill:#ebebeb;"></path><path d="M565.57359,83.715c0,2.8214-1.20959,5.1087-2.70159,5.1087s-2.70151-2.2873-2.70151-5.1087,1.20951-5.1087,2.70151-5.1087,2.70159,2.2872,2.70159,5.1087Z" style="fill:#ebebeb;"></path><ellipse cx="444.24189" cy="82.8565" rx="4.4891" ry="5.4621" style="fill:#ebebeb;"></ellipse><path d="M553.76949,102.1854c0,3.0166-2.0099,5.4621-4.4891,5.4621s-4.4891-2.4455-4.4891-5.4621,2.0098-5.4622,4.4891-5.4622,4.4891,2.4455,4.4891,5.4622Z" style="fill:#ebebeb;"></path><path d="M378.59819,60.7901c0,3.0166-1.611,5.4621-3.59819,5.4621s-3.59821-2.4455-3.59821-5.4621,1.611-5.4622,3.59821-5.4622,3.59819,2.4455,3.59819,5.4622Z" style="fill:#ebebeb;"></path><path d="M252.2105,64.1803c0,3.0166-1.5604,5.4621-3.4852,5.4621-1.9249,0-3.4853-2.4455-3.4853-5.4621s1.5604-5.4621,3.4853-5.4621c1.9248,0,3.4852,2.4454,3.4852,5.4621Z" style="fill:#ebebeb;"></path><ellipse cx="273.0423" cy="102.9401" rx="3.4852" ry="5.4621" style="fill:#ebebeb;"></ellipse><path d="M426.41509,102.1854c0,3.0166-1.5604,5.4621-3.4852,5.4621s-3.4852-2.4455-3.4852-5.4621,1.5604-5.4622,3.4852-5.4622,3.4852,2.4455,3.4852,5.4622Z" style="fill:#ebebeb;"></path><path d="M438.49139,104.948c0,1.9248-.9957,3.4852-2.2238,3.4852-1.2282,0-2.2239-1.5604-2.2239-3.4852,0-1.9249,.9957-3.4853,2.2239-3.4853,1.2281,0,2.2238,1.5604,2.2238,3.4853Z" style="fill:#ebebeb;"></path><ellipse cx="119.1875" cy="63.513" rx="3.6894" ry="4.4891" style="fill:#fafafa;"></ellipse><path d="M208.288,81.9967c0,2.4792-1.6518,4.489-3.6894,4.489s-3.6894-2.0098-3.6894-4.489,1.6518-4.4891,3.6894-4.4891,3.6894,2.0098,3.6894,4.4891Z" style="fill:#fafafa;"></path><ellipse cx="169.3871" cy="103.4487" rx="3.6894" ry="4.4891" style="fill:#fafafa;"></ellipse><path d="M262.5853,103.4487c0,2.4792-1.6518,4.4891-3.6894,4.4891s-3.6895-2.0099-3.6895-4.4891,1.6518-4.4891,3.6895-4.4891,3.6894,2.0098,3.6894,4.4891Z" style="fill:#fafafa;"></path><ellipse cx="227.3424" cy="58.7182" rx="3.6894" ry="4.4891" style="fill:#fafafa;"></ellipse><path d="M340.81019,58.673c0,2.4793-1.237,4.4891-2.763,4.4891s-2.763-2.0098-2.763-4.4891,1.237-4.489,2.763-4.489,2.763,2.0098,2.763,4.489Z" style="fill:#fafafa;"></path><ellipse cx="408.32809" cy="103.2182" rx="2.763" ry="4.4891" style="fill:#fafafa;"></ellipse><ellipse cx="526.75149" cy="63.16213" rx="5.4593" ry="7.96978" style="fill:#ebebeb;"></ellipse><path d="M549.28039,60.7901c0,3.0166-1.611,5.4621-3.5982,5.4621-1.9873,0-3.59819-2.4455-3.59819-5.4621s1.61089-5.4622,3.59819-5.4622c1.9872,0,3.5982,2.4455,3.5982,5.4622Z" style="fill:#ebebeb;"></path><ellipse cx="565.57359" cy="104.2118" rx="3.5982" ry="5.4621" style="fill:#ebebeb;"></ellipse><path d="M511.49239,58.673c0,2.4793-1.2371,4.4891-2.763,4.4891-1.526,0-2.763-2.0098-2.763-4.4891s1.237-4.489,2.763-4.489c1.5259,0,2.763,2.0098,2.763,4.489Z" style="fill:#fafafa;"></path><path d="M614.90719,60.5655c0,2.4793-1.2371,4.4891-2.7631,4.4891-1.5259,0-2.763-2.0098-2.763-4.4891s1.2371-4.4891,2.763-4.4891c1.526,0,2.7631,2.0098,2.7631,4.4891Z" style="fill:#fafafa;"></path><path d="M540.65189,102.1854c0,2.4792-1.237,4.489-2.763,4.489-1.52589,0-2.763-2.0098-2.763-4.489s1.23711-4.4891,2.763-4.4891c1.526,0,2.763,2.0098,2.763,4.4891Z" style="fill:#fafafa;"></path><path d="M573.09369,84.1149c0,1.526-.7614,2.7631-1.70069,2.7631-.93921,0-1.70061-1.2371-1.70061-2.7631,0-1.5259,.7614-2.763,1.70061-2.763,.93929,0,1.70069,1.2371,1.70069,2.763Z" style="fill:#fafafa;"></path><path d="M267.1658,60.79c0,3.4405-1.8513,6.2295-4.135,6.2295s-4.1349-2.789-4.1349-6.2295,1.8512-6.2294,4.1349-6.2294,4.135,2.789,4.135,6.2294Z" style="fill:#fafafa;"></path><path d="M488.73529,60.7901c0,3.4404-1.85129,6.2294-4.135,6.2294s-4.135-2.789-4.135-6.2294,1.8513-6.2295,4.135-6.2295,4.135,2.789,4.135,6.2295Z" style="fill:#fafafa;"></path></g><path d="M294.88219,190.7757c3.2172,0,3.2226-5,0-5-3.2173,0-3.2226,5,0,5h0Z" style="fill:#ebebeb;"></path></g><g id="freepik--Floor--inject-5"><path d="M733.63868,219.653c0,.1438-160.581,.2604-358.62149,.2604-198.10939,0-358.65589-.1166-358.65589-.2604,0-.1437,160.5465-.2604,358.65589-.2604,198.04049,0,358.62149,.1167,358.62149,.2604Z" style="fill:#263238;"></path></g><g id="freepik--Ball--inject-5"><g><path d="M440.65187,242.3525c0,3.57777-2.90048,6.47814-6.47825,6.47814s-6.47814-2.90036-6.47814-6.47814,2.90036-6.47814,6.47814-6.47814,6.47825,2.90036,6.47825,6.47814Z" style="fill:#7E57C2;"></path><path d="M440.65187,242.3525c-.06184,.00302-.04594-.57706-.31672-1.55309-.26763-.9577-.92684-2.35533-2.37145-3.42637-1.39624-1.07429-3.6881-1.67131-5.90178-.84319-2.19546,.75978-4.0887,3.09585-4.06434,5.82173-.02518,2.72692,1.86865,5.06357,4.06434,5.82358,2.21402,.82811,4.506,.23087,5.90212-.84354,1.44451-1.07116,2.10358-2.46867,2.37122-3.42626,.27066-.97591,.25477-1.55587,.3166-1.55285,.02077,0,.03411,.14212,.03991,.41661,.01114,.27356-.01833,.6817-.12843,1.19356-.20674,1.00921-.83228,2.51833-2.34025,3.70864-1.45575,1.19193-3.92442,1.89997-6.3511,1.02719-1.19483-.41765-2.33874-1.22152-3.15409-2.3421-.83728-1.10562-1.3127-2.53492-1.32442-4.00494,.01219-1.46956,.48773-2.89839,1.32489-4.00355,.81523-1.12024,1.95902-1.92387,3.15362-2.34141,2.42633-.87266,4.8949-.16497,6.35064,1.02673,1.50807,1.19031,2.13386,2.69943,2.34059,3.70887,.11021,.51186,.13968,.92,.12854,1.19367-.0058,.27449-.01914,.41672-.03991,.41672Z" style="fill:#263238;"></path></g></g><g id="freepik--Speed_line--inject-5"><path d="M414.73989,240.0021c.0005,.009-.1274,.0291-.3773,.0598-.2758,.0305-.643,.0713-1.1101,.1232-1.0057,.0996-2.4383,.2415-4.2688,.4229-1.8466,.2329-4.0925,.6275-6.7042,1.0317-2.5717,.6127-5.5486,1.1104-8.7241,2.1165-6.392,1.8141-13.8413,4.6685-21.4805,9.0313-7.62989,4.3524-15.4733,10.1497-22.6044,17.3748-5.9907,6.0521-11.0237,12.5448-15.1134,18.8011l-.1925,.2945-.2102-.2803c-2.166-2.8876-4.2196-5.6921-6.2775-8.2984-2.05289-2.6098-4.1027-5.0241-6.1264-7.2225-4.0851-4.3609-8.1277-7.7833-11.76349-10.204-3.63041-2.4409-6.80961-3.8699-8.974-4.8475-1.089-.4184-1.93841-.7447-2.54331-.9771-.2703-.1076-.4854-.1933-.6536-.2602-.14609-.0607-.2196-.095-.2174-.1017,.0022-.0068,.08,.0141,.2306,.0616,.1718,.057,.3916,.1298,.66771,.2214,.58579,.2026,1.45749,.4946,2.57749,.9054,2.1906,.933,5.4063,2.3256,9.0807,4.7443,3.6795,2.3981,7.77181,5.8124,11.8997,10.173,2.0448,2.1977,4.114,4.6131,6.1827,7.2227,2.0735,2.6059,4.13941,5.4089,6.3095,8.2871l-.4025,.0143c4.0898-6.2912,9.137-12.8197,15.1559-18.9002,7.1646-7.2592,15.0579-13.0756,22.7379-17.4258,7.6894-4.3611,15.188-7.1926,21.617-8.9681,3.1941-.9869,6.1867-1.4617,8.7712-2.0486,2.6245-.3783,4.8802-.7443,6.7341-.9467,1.8372-.1399,3.275-.2494,4.28431-.3262,.46889-.0302,.83759-.0539,1.11439-.0717,.2511-.0132,.38-.0156,.3805-.0066Z" style="fill:#263238;"></path></g><g id="freepik--Character_2--inject-5"><g><path d="M502.44804,260.62009c-.4029-8.3287,7.9533-14.2818,15.8541-11.616,2.6215,.8845,6.6207,3.0538,8.7772,6.5251,6.1788,9.9465,.8576,17.5388-.7485,19.3287-1.8238,2.0326-6.0922,5.0476-14.3141,2.3454-8.0647-2.6505-8.8283-8.8283-9.5207-15.9255-.0216-.2218-.03749-.4411-.048-.6577Z" style="fill:#263238;"></path><path d="M634.03063,330.88719c-.59009,.8286,33.4314-.1727,33.6358-8.1648,.2045-7.992-28.8358,1.4236-33.6358,8.1648Z" style="fill:#263238;"></path><path d="M563.23213,313.01189s-1.2659,8.5619,10.1453,16.1314c11.4112,7.5695,18.6828,1.7439,18.6828,1.7439,0,0-13.70169-22.3614-28.8281-17.8753Z" style="fill:#263238;"></path><path d="M628.78055,315.07589c1.116,1.953,16.182,28.7369,21.762,33.7589,5.57989,5.0219,9.24629,7.6109,14.78689,16.7399,6.3306,10.4306,18.5428,23.6856,22.342,26.922,5.8754,5.005,15.4672,14.0047,15.4672,14.0047l8.5046-1.8669s-20.42168-44.2253-27.39668-50.9213c-6.975-6.6959-11.38412-11.0164-14.03462-16.3174s-10.24738-40.6882-11.735-40.5776c-1.4876,.1106-29.69639,18.2577-29.69639,18.2577Z" style="fill:#ae7461;"></path><path d="M601.15743,321.74539c-3.069,1.116-30.5047,24.9899-30.5047,24.9899,0,0,1.3944,15.7468-2.232,22.32-4.1018,7.4349-5.1149,33.7338-5.1149,33.7338,0,0-12.5481-1.969-13.3851-2.527,0,0-2.7979-26.3266-3.2619-37.3448-.3918-9.3038-2.2245-22.6647,1.6815-29.8895s33.9674-36.2096,33.9674-36.2096l18.8497,24.9272Z" style="fill:#ae7461;"></path><path d="M640.99555,231.28179c.55609,.3707,14.44609,12.989,15.37279,14.1011,.9268,1.1121,11.2851,3.5677,12.2118,6.5333,.9268,2.9656-.7181,8.8642,3.545,7.0107,4.263-1.8535,8.6882-11.2738,7.76142-14.4248-.92672-3.1509-9.21-9.4303-12.22011-12.0955-.6206-.5494-11.2981-17.8099-11.2981-17.8099l-15.37279,16.6851Z" style="fill:#ae7461;"></path><path d="M500.58855,260.80309c-.40291-8.3287,7.95339-14.2818,15.85419-11.616,2.6214,.8845,6.6207,3.0538,8.7771,6.5251,6.1789,9.9465,.85771,17.5388-.7484,19.3287-1.82389,2.0326-6.0922,5.0476-14.3142,2.3454-8.06469-2.6506-8.8282-8.8283-9.52069-15.9255-.02161-.2218-.03751-.4411-.048-.6577Z" style="fill:#455a64;"></path><path d="M487.48074,250.55519c-.0697,.7311,15.5793,11.2518,15.5793,11.2518l2.2503-5.6259-14.71379-10.2997s-2.76961,1.0387-3.11581,4.6738Z" style="fill:#455a64;"></path><path d="M524.34594,226.68479c.4411,0,37.9337-16.0195,37.5391-15.0331s4.2404,25.6717,2.6622,25.6717c-1.5783,0-40.495,1.4471-40.6738,1.5306,0,0-16.2594,7.2771-16.2968,6.4658-.0273-.5912-7.0919-5.6471-7.0919-5.6471,0,0,10.446-12.9879,23.8612-12.9879Z" style="fill:#ae7461;"></path><path d="M504.61914,236.93039c-1.91,.8546-8.984,5.9187-10.7714,9.2053-1.3653,2.5102-2.9229,8.3643-2.1867,9.1926,.7363,.8283,1.8407,1.2885,1.8407,1.2885,0,0,1.0124,2.3929,2.577,2.3009h0s1.05681,2.555,3.1292,1.1965c.5551-.3639-.6442,5.1539,1.0124,5.1539,1.6567,0,2.6208-5.0758,3.72521-8.2971,1.10449-3.2212,2.25709-6.7046,2.25709-6.7046l3.2218-1.3161s-.4632-1.1837-.9778-2.8307c-.1479-.4731,0-1.9557-1.8528-3.8086" style="fill:#ae7461;"></path><g><g><path d="M560.03543,174.55419c-2.0086,1.0478-4.7156,.5003-6.1593-1.2455-.4345-.5256-.7669-1.1678-.7783-1.8498-.0115-.6817,.3563-1.3951,.9885-1.6509-1.0661-.2852-2.0407-.9752-2.5649-1.946-.5241-.9712-.5516-2.2211,.0259-3.1614,.5774-.9406,1.77721-1.4877,2.8443-1.2071-.4187-1.1162-.1235-2.4654,.7228-3.3047l4.9524-.5672-.0314,14.9326Z" style="fill:#263238;"></path><path d="M583.89693,219.81369l-4.7779-13.286s-10.13149,1.8272-13.5718-7.7444c-1.6613-4.623-4.3079-14.4206-6.6004-23.3157-2.465-9.5637,2.8288-19.4153,12.1634-22.6406l.9275-.3206c10.203-2.8714,18.3419,4.1894,20.9301,14.4684l10.1699,38.2843-8.8575,14.6321-10.3833-.0775Z" style="fill:#ae7461;"></path><path d="M579.11903,206.52769s6.2357-1.5844,11.6148-6.9951c0,0-.845,6.9901-10.7361,9.4387l-.8787-2.4436Z" style="fill:#6f4439;"></path><path d="M565.37003,183.89769c.2247,.7338,1.0317,1.1485,1.8022,.9275,.7692-.2206,1.21231-.9929,.98731-1.7266-.225-.7336-1.03161-1.1492-1.80091-.9291-.7707,.2209-1.2135,.9945-.9886,1.7282Z" style="fill:#263238;"></path><path d="M562.63833,179.45679c.232,.1201,1.0058-1.0088,2.4847-1.5156,1.4696-.5273,2.81651-.1416,2.9138-.3777,.0514-.1073-.2338-.3708-.8244-.5512-.583-.1818-1.4905-.2408-2.4097,.081-.9181,.3231-1.57519,.9293-1.9003,1.4298-.33389,.5056-.3756,.8824-.2641,.9337Z" style="fill:#263238;"></path><path d="M577.51033,179.86559c.2248,.7339,1.0315,1.1484,1.8021,.9276,.7694-.2203,1.2125-.9927,.9874-1.7269-.2249-.7334-1.0321-1.1487-1.8014-.9284-.7705,.2204-1.2131,.9941-.9881,1.7277Z" style="fill:#263238;"></path><path d="M577.25383,174.71489c.2323,.1201,1.0079-1.009,2.4855-1.5154,1.46921-.527,2.81621-.1416,2.914-.3779,.0509-.1072-.2325-.3711-.8252-.5508-.583-.1821-1.4902-.2408-2.4091,.0808-.9183,.3229-1.5754,.9292-1.9008,1.4296-.3324,.5052-.3751,.8824-.2644,.9337Z" style="fill:#263238;"></path><path d="M575.67833,187.52289c-.0221-.0865-.9953,.072-2.5489,.3959-.3904,.0916-.7734,.1399-.926-.096-.18289-.2416-.1657-.7026-.1346-1.2049,.0392-1.0349,.07971-2.1203,.1229-3.2577,.1364-4.6248,.0956-8.375-.0906-8.379-.1865-.0036-.448,3.7418-.5838,8.3666-.0245,1.1374-.0489,2.2219-.0703,3.2589,.0056,.4779-.0719,1.0492,.3159,1.5481,.1991,.2467,.5468,.3557,.8108,.337,.2674-.0097,.4809-.0787,.6714-.1322,1.52541-.4369,2.45641-.7512,2.4332-.8367Z" style="fill:#263238;"></path><path d="M574.87203,169.05749c.2847,.3514,1.6938-.3488,3.4989-.7384,1.7977-.4265,3.3704-.4019,3.4759-.8415,.0431-.2079-.331-.5017-1.0307-.6953-.694-.1945-1.7154-.2548-2.7957-.0111-1.0797,.2458-1.9753,.7401-2.5177,1.2152-.5477,.4759-.75919,.9023-.6307,1.0711Z" style="fill:#263238;"></path><path d="M561.70403,174.99379c.3758,.2459,1.2729-.4543,2.4913-.8934,1.2024-.4818,2.3378-.5554,2.4548-.9887,.0457-.2065-.2334-.4863-.796-.6475-.5554-.1624-1.3913-.163-2.2233,.1529-.8315,.3172-1.4552,.873-1.7622,1.3638-.3132,.4943-.3357,.8891-.1646,1.0129Z" style="fill:#263238;"></path><path d="M558.34803,170.73929s.4553-6.896,2.8726-9.3036c2.9264-2.9149,5.7723,.4197,8.79791-1.6735,3.02549-2.0935,5.81629-4.8846,10.13339-3.4783,4.7251,1.5392,3.657,4.1335,5.3624,8.3188,6.9131,16.9683,11.761,20.7675,9.8446,12.3117-.2099-.9265,2.0215-2.4918,1.0858-6.389-1.2133-5.0533-3.0767-11.0543-5.3666-14.1467-1.9301-2.6066-4.2955-4.0509-8.055-5.2454-5.9347-1.8853-12.4439,.2794-16.6935,2.2435-4.2495,1.9643-10.9874,9.9637-7.9816,17.3625Z" style="fill:#263238;"></path><path d="M594.65603,176.86459c-.4521-1.5045,.4218-3.1178,1.9484-3.488,1.8515-.4492,4.1984-.1203,5.3603,3.6251,2.0611,6.6445-5.0353,7.3432-5.1056,7.1562-.0482-.1272-1.3653-4.5052-2.2031-7.2933Z" style="fill:#ae7461;"></path><path d="M597.52913,181.20959c.0228-.0304,.1413,.0451,.3646,.074,.2177,.028,.5645-.0133,.8709-.2507,.62191-.4752,.8671-1.7728,.5281-2.9805-.1707-.6097-.47619-1.1463-.83819-1.5566-.35351-.4234-.77321-.6654-1.14611-.6184-.3767,.0278-.5613,.3168-.5847,.5291-.0316,.2134,.0517,.3329,.0201,.3552-.01329,.0225-.177-.0674-.2087-.3582-.0133-.1404,.016-.3213,.13241-.4972,.11929-.1794,.33309-.3181,.58749-.3679,.5234-.1235,1.1309,.205,1.5286,.6553,.4267,.4437,.7843,1.0423,.97591,1.7273,.37259,1.3522,.07589,2.8179-.79871,3.3931-.4295,.2672-.863,.2468-1.1131,.1529-.2567-.1006-.3378-.2384-.3186-.2574Z" style="fill:#6f4439;"></path><path d="M566.92523,166.41869c-.0163,.0053-.0289,.016-.04469,.022-.03851,.0162-.078,.0302-.11571,.048l.1604-.07Z" style="fill:#7E57C2;"></path><path d="M550.93464,159.10789c.0145-1.869,1.2002-3.5951,2.7634-4.6197,1.563-1.0244,3.4571-1.4302,5.3217-1.5578-.9305-2.3517,1.1303-5.0228,3.56681-5.7009,2.43659-.6784,5.01879,.0416,7.44449,.7581,2.3602-2.7247,7.1509-2.7751,9.5683-.1011,1.4439-1.5156,3.71921-2.1841,5.7534-1.6898,2.0342,.494,3.7492,2.1318,4.33681,4.1409,1.66389-.1919,3.40489,.5986,4.35549,1.9776,.9507,1.379,1.0698,3.2874,.2983,4.7739,1.332,.3554,2.36221,1.6325,2.4275,3.0094,.0654,1.3769-.8392,2.7458-2.13129,3.2256l-6.14011-2.7527c-2.4811,1.2935-5.9545-.0392-6.9334-2.6606-1.765,1.4126-4.4022,1.6213-6.36749,.5044-.05121,1.3752-.826,2.7031-1.99791,3.4244-1.1722,.7214-2.7069,.8145-3.9575,.2402,.3931,1.8352-.3681,3.8669-1.87,4.9921-1.5021,1.1255-3.66559,1.2848-5.3164,.3921-1.22819,1.906-4.0078,2.6062-5.9926,1.5099-1.9847-1.0962-2.8717-3.8222-1.9121-5.8765-1.8544-.2318-3.23149-2.1206-3.2174-3.9895Z" style="fill:#263238;"></path><path d="M582.24973,158.91289c-.0216,.0132,.055,.2105,.2973,.5088,.242,.2934,.6678,.6874,1.3249,.9588,.6447,.27,1.5561,.4046,2.4809,.0728,.9102-.3166,1.814-1.0664,2.2328-2.1627l-.3876,.1083c.478,.3772,1.0584,.6579,1.6834,.8016,1.3346,.3023,2.7145-.0185,3.6527-.7506,.9573-.7297,1.4035-1.7714,1.5541-2.6257,.1515-.8712,.0117-1.5895-.1451-2.0443-.1671-.4574-.3364-.6698-.3591-.6568-.1019,.0195,.5059,1.0073,.1539,2.6304-.1816,.7807-.62639,1.7044-1.4832,2.3237-.8379,.6261-2.0735,.8997-3.2604,.6305-.5557-.128-1.0661-.3732-1.487-.6971l-.27079-.2086-.11681,.3169c-.34619,.9403-1.1244,1.6237-1.9173,1.9267-.8004,.317-1.6086,.2396-2.2166,.032-1.2428-.4437-1.6748-1.2312-1.7361-1.1647Z" style="fill:#455a64;"></path></g><path d="M576.48213,191.99759c.19941-.0859,4.5843-3.8472,4.5843-3.8472,0,0,2.3624,2.7679-.2526,4.7726-2.21729,1.6997-4.3317-.9254-4.3317-.9254Z" style="fill:#6f4439;"></path></g><path d="M594.83693,281.84309l-31.6048,31.1688c7.3905-2.0427,17.7397,6.5838,28.8281,17.8753l24.6618-19.0403,17.3086,19.0403c11.4888-7.5177,20.9885-9.3421,33.6358-8.1648l-10.8737-36.2587-61.9558-4.6206Z" style="fill:#7E57C2;"></path><path d="M532.57424,222.46269c1.37731,1.5429,5.9535,11.2258,15.4975,14.2691s22.7066,5.5213,23.3724,5.5213c.6659,0,14.287,27.0595,16.5065,32.6083,0,0-3.7004,8.1947-2.5906,8.6386,1.1097,.4439-.4439,10.6538,27.7442,10.6538s46.8322-2.6635,46.8322-2.6635c0,0-5.6374-22.0234-8.4115-30.698-2.1802-6.8176-9.2783-25.9048-9.2783-25.9048l7.258,4.4437s14.64891-13.5392,14.205-20.8637c0,0-22.4173-16.6465-29.7418-19.088-7.3244-2.4415-32.35129-.5885-32.35129-.5885,0,0-.27361,15.5918-9.81761,17.3674s-11.8012-7.9288-11.8012-7.9288h0s-14.1697,.0281-19.2746,2.0256c-5.1049,1.9976-28.1489,12.2075-28.1489,12.2075Z" style="fill:#455a64;"></path><path d="M625.94483,222.19069c-.0246,.0203-.2667-.2251-.6504-.7184-.3702-.5009-.8625-1.2742-1.2557-2.3315-.4003-1.0525-.658-2.3943-.63719-3.8838,.01249-1.4894,.29669-3.1074,.747-4.7449,.68169-2.5582,1.52349-4.9189,2.63479-6.6254,1.0943-1.7222,2.3991-2.689,3.12521-3.0857l.084,.1551c-.47681,.1855-.72131,.2634-.73421,.2351-.0127-.0283,.2073-.1605,.6614-.3962l.084,.1552c-.6609,.4752-1.8544,1.4665-2.8603,3.1605-1.0234,1.6811-1.8138,3.9921-2.4924,6.5385-.4434,1.6126-.7316,3.1806-.7697,4.6171-.0456,1.4363,.1636,2.7247,.5055,3.7542,.6898,2.0702,1.6552,3.1081,1.558,3.1702Z" style="fill:#263238;"></path><path d="M644.74033,236.93839c-.088,.1138-3.1276-2.0895-6.7883-4.9206-3.6619-2.832-6.5582-5.2193-6.4703-5.3331,.088-.1137,3.1269,2.0892,6.7889,4.9212,3.6607,2.831,6.5576,5.2188,6.4697,5.3325Z" style="fill:#263238;"></path><path d="M565.39813,226.68479c.0725-.0226,.4489,1.0003,1.0646,2.6465,.615,1.6465,1.4854,3.9113,2.5356,6.3758,1.0526,2.4644,2.08521,4.6602,2.84821,6.2436,.76219,1.5837,1.24,2.563,1.17359,2.5998-.0593,.0329-.6518-.8847-1.5012-2.4316-.8497-1.546-1.9412-3.7295-2.9996-6.2075-1.056-2.478-1.8767-4.7768-2.4047-6.4601-.5289-1.6835-.7813-2.7465-.7165-2.7665Z" style="fill:#263238;"></path><path d="M500.00944,255.37899c.1414,.0488-.1582,1.2333-.3703,2.7104-.22059,1.4763-.2733,2.6967-.4229,2.7029-.1375,.0102-.3206-1.2448-.0924-2.7784,.2213-1.5341,.75671-2.6841,.8856-2.6349Z" style="fill:#6f4439;"></path><path d="M496.13584,256.28849c.1438-.0015,.2672,.6537,.2756,1.4633,.0084,.8099-.1013,1.4674-.2452,1.4689-.14369,.0015-.2671-.6536-.2755-1.4635-.0085-.8095,.1013-1.4672,.2451-1.4687Z" style="fill:#6f4439;"></path><path d="M493.46544,254.56239c.12211-.0683,.5033,.4163,.6012,1.1445,.1016,.728-.1354,1.297-.2713,1.2641-.1449-.0287-.1543-.564-.2447-1.1934-.0822-.6304-.217-1.1486-.0852-1.2152Z" style="fill:#6f4439;"></path><path d="M506.36374,247.88159c.143,.0152,.172,.8441,.06481,1.8511-.10721,1.0074-.31,1.8114-.45311,1.7962-.14289-.0153-.17189-.844-.0647-1.8513,.1072-1.007,.31-1.8112,.453-1.796Z" style="fill:#6f4439;"></path><path d="M506.33984,240.34319c.116-.0741,.9573,1.0804,1.5755,2.7158,.6253,1.6334,.764,3.0549,.6281,3.0767-.1472,.0283-.508-1.3087-1.11489-2.8915-.59831-1.5853-1.21751-2.8244-1.08871-2.901Z" style="fill:#6f4439;"></path><path d="M524.15324,235.22669c-.1436-.0066-.217-.9512-.1638-2.1096,.0532-1.1588,.2128-2.0925,.3565-2.086,.14361,.0066,.217,.9511,.1638,2.1099-.05319,1.1584-.2128,2.0923-.3565,2.0857Z" style="fill:#6f4439;"></path><path d="M596.58423,276.75929c.00231-.0169,.2949,.0052,.85131,.0632,.59859,.0682,1.41009,.1608,2.43479,.2777,2.1608,.2689,5.2147,.6489,8.9863,1.1183,7.6465,.9995,18.192,2.3779,30.0016,3.9215l1.7129,.2239-1.69759,.2883c-1.10611,.1878-2.28251,.4169-3.47761,.5957-3.159,.4873-6.272,.7438-9.2802,.8872-3.0107,.1216-5.9183,.0651-8.6815-.0853-5.5263-.3437-10.4562-1.1853-14.5249-2.1473-4.0703-.9693-7.2864-2.0409-9.4774-2.8517-1.0986-.3979-1.93-.7647-2.5006-.9931l-.6433-.275c-.1437-.0646-.2157-.1018-.2123-.1101,.0033-.0083,.082,.0124,.2322,.0608,.1785,.0611,.3958,.1355,.6617,.2266,.5823,.1966,1.42391,.5322,2.5303,.8999,2.2069,.7503,5.4288,1.7645,9.4923,2.6838,4.062,.9121,8.9725,1.7115,14.4699,2.027,2.7488,.1364,5.6397,.1825,8.63241,.0547,2.99009-.1497,6.08379-.408,9.22329-.8924,1.1879-.1777,2.357-.405,3.4564-.5905l.01531,.5122c-11.80111-1.6079-22.33891-3.0436-29.97981-4.0847-3.7627-.5363-6.8094-.9705-8.965-1.2777-1.0195-.156-1.8269-.2795-2.4224-.3706-.5522-.09-.8404-.1454-.8381-.1624Z" style="fill:#263238;"></path><path d="M635.45803,299.68819c.0247,.0765-1.0312,.4627-2.7004,1.1628-1.6697,.6985-3.9414,1.7443-6.33909,3.1071-2.39611,1.3674-4.45471,2.788-5.90721,3.8677-1.4536,1.0785-2.3243,1.7895-2.3775,1.7293-.0424-.0471,.7441-.8578,2.151-2.0197,1.4048-1.1621,3.4538-2.6477,5.876-4.0299,2.42371-1.3776,4.7463-2.382,6.4625-2.9974,1.7171-.6175,2.8158-.8804,2.8347-.8199Z" style="fill:#263238;"></path><path d="M616.26455,307.83079c-.08571,.0174-.26991-.7982-.759-2.0367-.48461-1.2382-1.33751-2.882-2.62741-4.445-1.2969-1.5582-2.7542-2.7013-3.8809-3.4072-1.1262-.7105-1.8933-1.0428-1.8603-1.1237,.0182-.0529,.84161,.1594,2.047,.8063,1.203,.6407,2.7538,1.7796,4.0952,3.3922,1.3351,1.6169,2.1666,3.3518,2.5729,4.6528,.4119,1.3046,.4679,2.1532,.41251,2.1613Z" style="fill:#263238;"></path><path d="M549.93724,402.74599c-.5248-.8746-1.7376-15.4156-1.7376-15.4156l16.8776,.6512-1.7714,14.8075,1.8493,3.0789-11.3645,2.6238-3.8534-5.7458Z" style="fill:#e0e0e0;"></path><g><path d="M526.18924,419.85859s6.5457,2.513,12.36,2.4964c5.8144-.0166,14.5044-1.3518,17.6982-1.8059,3.194-.454,12.3797,1.4255,13.13411-1.7568,1.15619-4.8771-5.57371-15.1172-5.57371-15.1172,0,0-.999,2.3272-4.1635,1.9446-3.1643-.3826-8.354-1.7753-8.354-1.7753,0,0-2.3342-4.3688-4.1463-4.6791-1.8118-.3102-1.6269,4.9188-1.6269,4.9188,0,0-4.9611,5.8607-8.1283,6.956-3.1674,1.0955-3.358,2.0232-6.9302,1.8242-3.5724-.199-5.3873,.9687-5.3873,.9687,0,0-1.8734,2.7839-1.1229,3.9018,.7503,1.118,2.2408,2.1238,2.2408,2.1238Z" style="fill:#263238;"></path><path d="M523.90984,417.67089c.6455,1.2393,2.26571,2.235,2.26571,2.235,0,0,6.54569,2.5131,12.36009,2.4964,5.8145-.0166,14.5043-1.3519,17.6983-1.8058,3.1938-.454,12.2294,1.3861,13.1341-1.757,.2563-.8591,.28-1.7591,.077-2.6987,0,0-9.4468,1.7427-13.9059,1.3015-4.4591-.441-14.2267,1.9175-19.2669,1.4676-5.0403-.4501-10.6183-2.1389-10.6183-2.1389l-1.5835-1.0281c-.2574,.7184-.55,1.2062-.1606,1.928Z" style="fill:#455a64;"></path><path d="M538.58934,410.25769c.0889,.0019,.0699,.8205,.4814,1.703,.3962,.89,1.0264,1.4125,.9694,1.4809-.0318,.0698-.8037-.3882-1.2394-1.3578-.4458-.9647-.2849-1.8479-.2114-1.8261Z" style="fill:#fff;"></path><path d="M541.70744,407.91529c.09011-.0077,.1349,.9761,.7208,1.9904,.5686,1.0244,1.3891,1.5686,1.33631,1.642-.02261,.0726-.97911-.3947-1.59461-1.4958-.6275-1.0938-.53639-2.1546-.4625-2.1366Z" style="fill:#fff;"></path><path d="M543.97634,405.62099c.0794-.0352,.4445,.6701,1.0457,1.4274,.5953,.7624,1.1951,1.2828,1.1421,1.3517-.0424,.0642-.7511-.3705-1.3753-1.1682-.6286-.7935-.8849-1.5846-.8125-1.6109Z" style="fill:#fff;"></path><path d="M560.90383,413.73499c.00171,.0397-.4608,.0993-1.2124,.1402-.7512,.0412-1.7917,.0578-2.9394,.0146-1.1481-.044-2.1842-.1396-2.9303-.2377-.7463-.0979-1.2029-.1925-1.1981-.232,.0105-.0854,1.85691,.0891,4.1396,.1731,2.282,.0896,4.1365,.0558,4.1406,.1418Z" style="fill:#fff;"></path></g><path d="M701.56563,410.26779s-.23208-1.4586-.568-3.7664c-.336-2.3078-10.4853-11.5341-10.4853-11.5341,0,0,11.5053-8.8531,12.2546-8.8531,.7492,0,7.7738,13.5153,8.8763,18.5203,1.1987,5.4417-4.55168,10.087-4.55168,10.087l-5.52592-4.4537Z" style="fill:#e0e0e0;"></path><g><path d="M711.29433,404.67569c1.877,3.1952,3.0216,7.4965,2.8958,11.6602-.0561,1.8525-.2367,3.8403-1.38558,5.267-.91182,1.1322-2.35252,1.7928-3.01412,3.0974-.7434,1.4659-.2713,3.263-.5994,4.8819-.4302,2.1218-3.2973,4.0549-5.2664,4.797-1.96908,.7421-3.68908,.5261-5.7816,.5441-3.02948,.0261-5.6896-.1357-8.0087-2.1425-1.7675-1.5294-2.6329-4.0085-2.5207-6.3961,.1122-2.3875,1.1246-4.6716,2.5655-6.5458,1.234-1.6052,2.7947-2.9668,3.7272-4.7762,1.0471-2.0313,2.28122-6.3465,2.8987-9.0847,0,0,1.0009-1.2333,5.1744-1.0823,4.1733,.1512,5.7237,4.8082,7.18512,3.704,1.46118-1.1042,2.12978-3.924,2.12978-3.924Z" style="fill:#263238;"></path><path d="M687.52843,429.14239c1.7244,1.4491,3.6204,2.5703,5.7767,3.1325,2.2496,.5868,4.3817,.7,6.599,.4839,1.3138-.128,3.33642-.6997,4.3777-1.5428,1.6853-1.3645,2.3229-2.0429,2.8159-3.3118,.522-1.3438,.2645-2.9122,.8243-4.2398,.6233-1.4782,2.1-2.3298,3.2108-3.4621,1.4782-1.5068,2.9203-3.9045,2.9301-6.0472,1.2208,1.9963,1.3402,5.0139-.0175,7.0359-1.0752,1.6012-2.9451,2.5291-3.8755,4.2243-.8118,1.4791-.164,3.102-.7367,4.6958-.8008,2.2289-3.3858,4.051-5.5605,4.8167-2.175,.7659-4.5337,.7604-6.8107,.4816-1.8866-.2309-3.78048-.6543-5.44948-1.5883-1.66892-.934-3.10322-2.429-3.68612-4.2991" style="fill:#455a64;"></path><path d="M700.59403,421.29639c-.081,.1338-1.4721-.6819-3.3784-1.0729-1.9022-.4139-3.50408-.2308-3.52408-.3858-.03832-.1259,1.61608-.5574,3.63148-.1226,2.0184,.4177,3.3569,1.4817,3.271,1.5813Z" style="fill:#fff;"></path><path d="M701.57983,418.52319c-.081,.1337-1.4722-.6819-3.3785-1.0729-1.9021-.414-3.504-.2308-3.524-.3859-.0384-.1258,1.616-.5574,3.6315-.1226,2.0183,.4178,3.3571,1.4818,3.271,1.5814Z" style="fill:#fff;"></path><path d="M703.45493,415.91179c-.081,.1337-1.4721-.682-3.37838-1.0729-1.90222-.414-3.50412-.2307-3.52412-.3859-.0383-.1258,1.61612-.5574,3.6315-.1224,2.0184,.4176,3.357,1.4816,3.271,1.5812Z" style="fill:#fff;"></path><path d="M699.65003,412.36369c-.03-.0174,.1112-.3395,.4084-.9019,.3034-.5571,.74412-1.3745,1.4798-2.2673,.3819-.4213,.7718-.9504,1.4812-1.2477,.3409-.1469,.8564-.1429,1.1955,.1791,.3309,.304,.4611,.7713,.4028,1.2022-.1477,.859-.6686,1.5202-1.261,2.1286-.6161,.5907-1.3561,1.0784-2.2179,1.387-.8519,.3239-1.8932,.2709-2.6442-.2061-.7642-.4457-1.2883-1.1256-1.6806-1.7791-.1981-.3293-.3692-.6579-.531-.975-.0739-.1518-.1828-.3249-.2146-.5601-.0162-.1144-.003-.2718,.0892-.4001,.0853-.1245,.2413-.1998,.3673-.208,.2501-.0178,.4321,.0723,.57862,.141,.15338,.0681,.29808,.1461,.43738,.2268,.2758,.1651,.53,.3414,.7499,.5358,.897,.768,1.32972,1.6481,1.5358,2.2531,.1983,.6179,.1954,.9801,.1684,.9831-.0433,.0082-.1094-.3392-.357-.91-.2544-.5597-.7154-1.3629-1.5806-2.0425-.212-.1725-.454-.3265-.7132-.4701-.2461-.1253-.589-.3069-.77068-.2891-.06542,.0229-.06982,.0166-.06452,.122,.0152,.1097,.0908,.2444,.1786,.4058,.1678,.3113,.3407,.6275,.5344,.9367,.3839,.616,.8681,1.2131,1.5268,1.5887,.6499,.3943,1.4518,.4351,2.2214,.1556,1.5124-.553,2.8632-1.7883,3.1727-3.0859,.0501-.3074-.04638-.621-.2382-.805-.1873-.1824-.4696-.2091-.738-.1096-.5471,.1995-.972,.6888-1.35118,1.0838-.74312,.8283-1.22922,1.6077-1.58332,2.1298-.3489,.5278-.5502,.8171-.5822,.7984Z" style="fill:#fff;"></path><path d="M710.65093,413.34239c.1361,.0188,.0835,.9506-.47138,1.9298-.549,.983-1.31812,1.5116-1.40482,1.405-.1015-.1099,.4519-.7598,.9519-1.6598,.5096-.8942,.7777-1.7048,.9243-1.675Z" style="fill:#fff;"></path></g><path d="M670.42555,242.95879c.02578,.0764-.50852,.2116-.98992,.8566-.5065,.6251-.7225,1.7495-.8075,3.0272-.2081,2.5468,.1799,4.6138,.0289,4.6426-.1272,.0432-.76148-2.0413-.5481-4.6831,.082-1.2865,.3771-2.5597,1.0451-3.224,.6408-.6774,1.2803-.6831,1.27152-.6193Z" style="fill:#6f4439;"></path><g style="opacity:.3;"><path d="M565.73083,228.30739c-.68029,1.3209-.6037,3.0874-1.0076,4.5171-.8052,2.8507-1.0291,5.2206-1.0332,8.1828,2.4206,.3045,5.33351,.9413,7.7542,1.2458l-5.7134-13.9457Z"></path></g><path d="M579.21963,193.63669c-.01309-.0911,.7988,.0364,1.6658-.7069,.41711-.3649,.8025-.9288,.9055-1.6524,.1125-.7153-.0338-1.5489-.4345-2.2978-.0951-.184-.2321-.3954-.2702-.3871,.0058-.0301-.1475,.0462-.3193,.2012-.3273,.2616-.6463,.5166-.9595,.7669l-1.6438,1.2754c-.9456,.7142-1.55309,1.1281-1.5987,1.0725-.0456-.0556,.4794-.5702,1.3652-1.3572,.5018-.4344,1.0253-.8876,1.5731-1.3618,.3068-.258,.6195-.5207,.9402-.7904,.0815-.0655,.1586-.1404,.2848-.2191,.1136-.0749,.32731-.1513,.5308-.0759,.3851,.1846,.4243,.4386,.5567,.6301,.4517,.8441,.6066,1.7965,.448,2.6252-.1467,.8371-.6457,1.491-1.1479,1.8576-.5091,.3785-1.0266,.5016-1.3705,.5122-.3487,.0098-.5304-.0635-.5257-.0925Z" style="fill:#263238;"></path></g></g><g id="freepik--Table--inject-5"><g><g><path d="M481.39129,378.8308c14.233-32.6921,48.3543-48.8247,50.6188-49.6525h-52.0053c-6.4696,2.4831-24.659,26.8987-24.659,26.8987-32.8855-34.1377-73.03179-31.3458-73.03179-31.3458l-2.60511-.307s-44.548-2.4849-77.4334,31.6528c0,0-18.18949-24.4156-24.6591-26.8987h-52.0052c2.2644,.8278,35.9442,15.9754,50.1773,48.6675,0,0-28.5878,33.968-41.91249,66.5385h9.0574s58.0858-89.9687,136.7755-89.9687c84.2917,0,136.37511,89.9687,136.37511,89.9687h9.05739c-13.3247-32.5705-43.7501-65.5535-43.7501-65.5535Z" style="fill:#e0e0e0;"></path><rect x="182.9818" y="320.2838" width="391.23289" height="8.8946" style="fill:#263238;"></rect><path d="M574.21469,329.1784c0,.1438-87.3344,.2604-195.0419,.2604-107.745,0-195.0607-.1166-195.0607-.2604s87.3157-.2604,195.0607-.2604c107.7075,0,195.0419,.1166,195.0419,.2604Z" style="fill:#455a64;"></path><path d="M229.4477,294.0527c-1.6897,.6557-46.4659,26.2311-46.4659,26.2311h391.23289l-42.7389-26.2311H229.4477Z" style="fill:#455a64;"></path><path d="M561.82119,316.7845H196.1835l1.6411-.9346c8.3218-4.7373,28.1304-15.998,32.3369-18.2383l.1099-.0586h300.21579l.1201,.0743,31.2139,19.1572Zm-361.85989-1h358.31889l-28.07619-17.2315H230.5214c-4.1485,2.2208-21.6114,12.1397-30.5601,17.2315Z" style="fill:#fff;"></path><g><rect x="377.18459" y="272.359" width="2.5243" height="56.8194" style="fill:#e0e0e0;"></rect><g style="opacity:.3;"><rect x="377.18459" y="298.1505" width="2.5243" height="31.0108"></rect></g></g></g><path d="M379.709,329.1613c-.00621-.0062-.01241-.1107-.01841-.3088-.0048-.225-.0108-.5117-.0183-.8706-.0089-.7934-.02129-1.9028-.0371-3.3152-.0188-2.899-.0456-7.0355-.0787-12.1451-.02749-10.255-.0654-24.4066-.1077-40.1625l.2601,.2601c-.7984,0-1.6578,.0001-2.5215,.0002,.5147-.5194,.1427-.1326,.25761-.2434v.6148l-.00011,.6331-.0001,1.2612c-.0003,.8385-.0005,1.6726-.0007,2.5018-.001,1.6583-.0019,3.2972-.0028,4.9138-.0036,3.2326-.0071,6.3761-.0105,9.4079-.0143,6.0584-.0276,11.6693-.0393,16.654-.0336,9.958-.0808,17.3813-.1353,20.7985l-.0715-.0714c.8295,.0182,1.4476,.0317,1.8909,.0414l.47,.0166c.1051,.0048,.159,.0092,.16341,.0136,.00859,.0087-.18031,.0175-.59191,.0301-.453,.0097-1.0847,.0233-1.9324,.0415l-.0706,.0015-.00109-.0733c-.05451-3.4172-.10171-10.8405-.13531-20.7985-.0118-4.9847-.025-10.5956-.0393-16.654-.00339-3.0318-.0069-6.1753-.0106-9.4079-.0009-1.6166-.00179-3.2555-.0027-4.9138-.0002-.8292-.0004-1.6633-.0007-2.5018l-.0002-1.2612v-1.2479c.1174-.1215-.2628,.2439,.2632-.2774l2.5215,.0003h.2609l-.0007,.2602c-.0423,15.8315-.0802,30.0511-.1077,40.3553-.0331,5.084-.0599,9.1997-.0787,12.0841-.0158,1.3866-.0282,2.4757-.0371,3.2546l-.0182,.8359c-.0061,.1862-.0122,.2785-.01839,.2723Z" style="fill:#263238;"></path></g></g><g id="freepik--Character_1--inject-5"><g><path d="M100.39796,370.15733c.8683-.3722,3.1013,1.2405,7.0711,0,3.9698-1.2406-5.4584-7.6915-5.4584-7.6915l-1.6127,7.6915Z" style="fill:#455a64;"></path><path d="M166.34396,336.70023c-.195-.112-.141-2.3842-1.9669-3.2097-1.826-.8256-5.4395,0-5.4395,0l7.4064,3.2097Z" style="fill:#455a64;"></path><path d="M216.99136,281.05313s15.185,.8821,17.2325,1.9875c2.0474,1.1054,11.5367,9.5074,8.3736,10.8041-3.1631,1.2968-6.1755,2.7137-9.0374,1.4781-2.8618-1.2357-5.021-2.312-5.021-2.312,0,0-10.9887,.3927-13.0756-1.8261s1.5279-10.1316,1.5279-10.1316Z" style="fill:#ffbf9d;"></path><path d="M232.39746,295.04933h-15.8918c-1.1541-1.2263-1.1778-2.8284,0-4.8299h15.8918v4.8299Z" style="fill:#7E57C2;"></path><path d="M252.74126,280.32583c-.3696-.1022-10.963-1.0547-16.8792,4.9472-4.2697,4.3316-7.6633,10.2684-7.4061,13.5266,.2573,3.2581,4.9196,10.3951,19.0669,6.9655,14.1473-3.4296,15.8158-22.5084,5.2184-25.4393Z" style="fill:#263238;"></path><g><g><path d="M168.59326,181.70463l.9365,.2302c9.4246,2.3144,15.4924,11.4771,13.9425,21.0575-1.4413,8.9105-3.1479,18.7362-4.3569,23.4093-2.5038,9.6761-12.5818,8.8013-12.5818,8.8013l-2.0431,11.8622-19.568-11.2947,3.1288-20.5833,.4604-17.991c2.5116-9.7386,9.8391-17.3816,20.0816-15.4915Z" style="fill:#ffbf9d;"></path><path d="M166.61726,235.20883s-6.2895-1.1494-11.8032-6.8455c0,0,1.3717,7.9389,11.271,9.4435l.5322-2.598Z" style="fill:#ff9a6c;"></path><path d="M178.07046,212.71233c-.1535,.7383-.9057,1.2169-1.6798,1.0701-.7724-.1465-1.2757-.862-1.1216-1.6004,.154-.7383,.9058-1.2175,1.6785-1.0715,.7738,.1466,1.2769,.8639,1.1229,1.6018Z" style="fill:#263238;"></path><path d="M180.28106,206.89623c-.1795,.1165-1.247-.3458-2.7818-.311-1.5326,.0213-2.6712,.5237-2.8345,.4134-.0806-.0489,.1047-.2564,.6007-.4831,.4881-.2258,1.3169-.4527,2.2729-.4703,.9557-.0169,1.7542,.1796,2.2108,.3883,.4662,.2097,.6205,.4103,.5319,.4627Z" style="fill:#263238;"></path><path d="M165.12076,209.62563c-.1538,.7381-.9061,1.2165-1.6799,1.0698-.7725-.1461-1.2757-.862-1.1218-1.6007,.1539-.7378,.9064-1.2171,1.6788-1.071,.7739,.1464,1.2769,.8637,1.1229,1.6019Z" style="fill:#263238;"></path><path d="M165.18656,205.36823c-.2165,.0454-.9808-.8719-2.393-1.471-1.4049-.6122-2.6697-.5675-2.7686-.7487-.0511-.0833,.2101-.2204,.7664-.2473,.5467-.0299,1.4042,.0798,2.2826,.4572,.878,.3782,1.5162,.9108,1.8375,1.3143,.3282,.4077,.3789,.6783,.2751,.6955Z" style="fill:#263238;"></path><path d="M168.18706,216.29663c.0138-.0869,.9803-.0194,2.5296,.1575,.3905,.0545,.7699,.0673,.8978-.1769,.1571-.2532,.0987-.7029,.0232-1.1915-.132-1.0094-.2694-2.0675-.414-3.1767-.5502-4.5134-.8483-8.1863-.6666-8.2069,.1821-.0202,.7754,3.6209,1.3252,8.1341,.1264,1.1106,.2482,2.1698,.3625,3.1823,.0376,.4683,.1652,1.0202-.1696,1.5432-.1724,.2595-.5028,.3976-.7628,.4033-.2627,.0144-.4778-.0339-.6688-.0692-1.5319-.2899-2.4714-.5136-2.4565-.5992Z" style="fill:#263238;"></path><path d="M166.70956,203.24133c-.2896,.3299-1.4672-.3939-3.0285-.8313-1.551-.4726-2.9501-.5018-2.9974-.9302-.0159-.2023,.3469-.4733,.9884-.6368,.6368-.1647,1.5496-.1886,2.4831,.0835,.9326,.2736,1.6758,.7814,2.1072,1.2586,.4363,.4784,.579,.8974,.4472,1.0562Z" style="fill:#263238;"></path><path d="M182.69366,202.73843c-.3974,.2616-1.5418-.3925-3.0183-.7727-1.4647-.4229-2.7897-.4436-2.991-.8688-.0842-.203,.1963-.4941,.8228-.6802,.6179-.187,1.5852-.2264,2.596,.0491,1.0103,.2769,1.8165,.8004,2.2463,1.2738,.4373,.4766,.5236,.8679,.3442,.9988Z" style="fill:#263238;"></path><path d="M175.86106,179.36203c6.8793,1.6854,10.7909,6.9235,12.2256,11.6627,1.3362,4.4137,1.6085,13.5933,1.6085,13.5933l-5.9912-4.0368-.1712-3.7136s-1.5202,2.899-7.4735,4.5134c-5.9534,1.6145-10.558-.1601-10.558-.1601l.3731-5.1019c-1.882,4.6578-6.8261,6.0227-7.3815,6.089s2.466-9.6343,2.9198-9.8175c0,0,.0966-.3442,.2789-.9158l-.0001-.0001s-3.5233,2.0535-5.5203,6.3025c-4.0476,8.6115-7.5455,14.1572-7.5434,11.9055l-1.2678,10.052-2.4375-6.0227c-.2129-.6152-.7417-14.3633-.7417-14.3633,0,0-4.282-3.32-3.9531-3.5678,.3288-.2477,8.971-19.7431,24.5035-16.9421,0,0,6.1866-.9787,11.1299,.5233Z" style="fill:#263238;"></path><path d="M149.60176,207.56823c.0976-1.5407-1.0977-2.8902-2.6416-2.9045-1.872-.0175-4.045,.8196-4.3229,4.6632-.493,6.8183,6.4539,5.9068,6.4798,5.7121,.0177-.1322,.3037-4.6158,.4847-7.4708Z" style="fill:#ffbf9d;"></path><path d="M148.04446,212.34183c-.0307-.0208-.1172,.0869-.3158,.1845-.1934,.0952-.5291,.1663-.8892,.0424-.7292-.2451-1.3683-1.3745-1.435-2.6055-.0342-.6211,.0799-1.2172,.2869-1.7133,.195-.5058,.5086-.8636,.8703-.938,.3594-.0938,.6226,.1169,.7115,.3069,.0969,.1886,.0572,.3262,.0936,.3372,.0196,.0167,.1435-.119,.0808-.3995-.0319-.1347-.1164-.294-.2804-.4208-.1676-.1288-.4108-.1903-.6631-.1559-.5259,.0507-.9869,.5485-1.2145,1.0931-.2565,.5481-.3994,1.2181-.3609,1.9158,.0814,1.3761,.8214,2.6456,1.817,2.9039,.4842,.1124,.8811-.0436,1.0839-.2103,.207-.1748,.2387-.3286,.2149-.3405Z" style="fill:#ff9a6c;"></path></g><path d="M152.80426,203.25513c-.0275,.0698-1.0378-.2551-2.6563-.8408l-.1394-.0505,.0214-.1576c.1828-1.347,.5339-3.1264,1.1293-5.0414l.4077,.2814c-.1947,.1534-.4015,.3164-.6106,.4812-1.4014,1.1015-2.7142,2.1129-3.8136,2.9419l-.1403,.1058-.1295-.1071c-1.7825-1.4749-3.2225-2.0774-3.1726-2.1765,.0167-.0388,.392,.0674,1.0145,.3526,.6205,.286,1.487,.7608,2.4295,1.4857l-.2695-.0014c1.0653-.8723,2.3582-1.9089,3.7597-3.0104,.2095-.1643,.4168-.3267,.6119-.4796l.6611-.5181-.2533,.7995c-.5971,1.8847-.9925,3.6275-1.2492,4.9485l-.1179-.2078c1.5837,.6742,2.5446,1.1249,2.5171,1.1946Z" style="fill:#455a64;"></path></g><path d="M154.60466,181.30053c-.1355,.0258-.4601-1.1982-.4025-2.744,.0507-1.5467,.4602-2.7447,.5935-2.7094,.1459,.0335-.0252,1.2398-.073,2.7276-.0564,1.487,.0298,2.7026-.118,2.7258Z" style="fill:#263238;"></path><path d="M150.48716,177.69573c.1032-.1064,.9826,.594,2.1065,1.3844,1.1207,.7959,2.0743,1.3908,2.0084,1.5237-.0594,.126-1.1494-.2758-2.3089-1.0984-1.1621-.8181-1.9049-1.7116-1.806-1.8097Z" style="fill:#263238;"></path><path d="M157.39186,331.84303s26.2384,13.168,29.1533,20.8719c2.915,7.7038-37.912,62.2428-37.912,62.2428l-12.217-1.4873s7.2943-22.6368,13.225-33.0767c5.9306-10.4398,11.1082-16.3132,11.1082-16.3132,0,0-19.0618-2.6815-19.3272-3.3621-.2655-.6806-5.4224-14.709-5.006-14.5008,.4165,.2082,20.9757-14.3746,20.9757-14.3746Z" style="fill:#ffbf9d;"></path><path d="M134.36386,417.84793l5.5456-15.5858s16.7671,2.1361,16.0988,2.8745c-.6684,.7384-4.6991,10.9019-8.4647,12.3194-3.7657,1.4175-13.2555,1.606-13.1797,.3919Z" style="fill:#e0e0e0;"></path><g><path d="M178.27746,431.48433s-7.1239,2.735-13.4519,2.7169c-6.3281-.0181-15.7857-1.4712-19.2617-1.9654-3.4761-.4941-13.4733,1.5515-14.2944-1.912-1.2583-5.3079,4.0175-16.4288,4.0175-16.4288,0,0,3.1358,2.5089,6.5799,2.0926,3.4439-.4165,9.092-1.9322,9.092-1.9322,0,0,2.5404-4.7547,4.5126-5.0924,1.9719-.3376,1.7706,5.3532,1.7706,5.3532,0,0,5.3994,6.3785,8.8464,7.5706,3.4472,1.1922,3.6546,2.2019,7.5425,1.9854,3.8879-.2167,5.8631,1.0542,5.8631,1.0542,0,0,2.0389,3.0299,1.2222,4.2465-.8166,1.2167-2.4388,2.3114-2.4388,2.3114Z" style="fill:#263238;"></path><path d="M180.75826,429.10333c-.7026,1.3489-2.4659,2.4325-2.4659,2.4325,0,0-7.1239,2.7351-13.452,2.7169-6.3281-.018-15.7856-1.4713-19.2618-1.9653-3.476-.4941-13.3098,1.5086-14.2943-1.9122-.2791-.9351-.3048-1.9145-.0839-2.9372,0,0,10.2814,1.8967,15.1344,1.4166,4.853-.48,15.4835,2.0869,20.969,1.5972,5.4855-.4899,11.5563-2.3279,11.5563-2.3279l1.7234-1.1189c.2801,.7819,.5985,1.3128,.1748,2.0983Z" style="fill:#455a64;"></path><path d="M164.78186,421.03533c-.0967,.002-.076,.8929-.5239,1.8534-.4311,.9686-1.117,1.5372-1.055,1.6117,.0346,.076,.8747-.4225,1.3489-1.4778,.4851-1.0499,.31-2.011,.23-1.9873Z" style="fill:#fff;"></path><path d="M161.38836,418.48593c-.098-.0084-.1468,1.0623-.7845,2.1663-.6188,1.1149-1.5117,1.7072-1.4543,1.787,.0246,.079,1.0655-.4296,1.7354-1.6279,.6829-1.1904,.5839-2.345,.5034-2.3254Z" style="fill:#fff;"></path><path d="M158.91906,415.98893c-.0865-.0383-.4838,.7294-1.1381,1.5536-.648,.8297-1.3007,1.3961-1.243,1.471,.0461,.0699,.8175-.4032,1.4967-1.2713,.6842-.8637,.9632-1.7247,.8844-1.7533Z" style="fill:#fff;"></path><path d="M140.49606,424.81973c-.0018,.0432,.5016,.1082,1.3196,.1526,.8176,.0449,1.95,.0629,3.1991,.0159,1.2495-.0479,2.3771-.1519,3.1891-.2587,.8123-.1066,1.3092-.2095,1.304-.2525-.0115-.0929-2.021,.097-4.5054,.1884-2.4835,.0976-4.5018,.0608-4.5064,.1543Z" style="fill:#fff;"></path></g><path d="M100.01116,363.51693c-1.0507,1.8561,22.6785,21.5811,20.118,24.8731-2.5605,3.2921-16.4602,15.3629-24.1416,25.6048-7.68144,10.2418-20.14426,41.7909-20.14426,41.7909,0,0,15.75486,.6397,15.38906-.4576s54.1357-58.8909,57.4278-65.1092c3.292-6.2183-12.0708-45.3569-12.0708-45.3569,0,0-25.6048-.7316-36.5782,18.6549Z" style="fill:#ffbf9d;"></path><path d="M135.09846,327.10023l-40.5904-5.0738-7.31374,28.6201,2.08974-.7609c.3927-.2002,11.1139,20.2717,11.1139,20.2717,0,0,6.2873-20.9862,38.7594-22.001l-4.0589-21.0561Z" style="fill:#263238;"></path><path d="M144.40436,324.46003l19.9727,9.0305c-2.8431-1.7612-20.6955,14.5749-23.5884,21.8884l-10.2775-21.8831,13.8932-9.0358Z" style="fill:#263238;"></path><path d="M173.73656,275.65683l1.3395,10.6347,41.9153-5.2384-1.5279,10.1316s-33.8022,11.6048-45.9438,13.3007c-6.6901,.9344-10.5821-14.1835-10.5821-14.1835l2.8108-4.4374,11.9882-10.2077Z" style="fill:#ffbf9d;"></path><path d="M252.74126,280.32583c-3.1913-1.2141-12.9469-2.2293-18.8631,3.7726-4.2697,4.3316-5.9161,10.7176-5.6589,13.9758,.2573,3.2581,3.1724,9.946,17.3197,6.5163,14.1473-3.4296,16.697-20.6526,7.2023-24.2647Z" style="fill:#7E57C2;"></path><g><path d="M218.01776,287.52193c.5217,1.3967,3.0955,2.9132,4.56,3.1929,1.4644,.2797,2.9712,.0823,4.458-.0293,1.4867-.1116,3.0384-.1253,4.3984,.4859,1.1014,.4949,2.198,1.4062,3.3612,1.0819,0,0,2.0641-.8514,0-3.1093s-9.5248-5.8873-9.5248-5.8873" style="fill:#ffbf9d;"></path><path d="M225.27046,283.25673c.0147-.0302,.3983,.1201,1.0776,.4338,.679,.3143,1.6546,.7907,2.8456,1.4269,1.1897,.6384,2.5995,1.4294,4.0971,2.4605,.728,.5326,1.5361,1.1056,2.1387,1.9625,.2967,.4176,.5692,.9414,.5286,1.5609-.058,.6317-.5084,1.1374-1.0638,1.3915l-.0094,.0043-.02,.0058c-.5885,.1711-1.2407,.0332-1.777-.2023-.5554-.2366-1.0417-.5416-1.5282-.7826-.4804-.2435-.9805-.4028-1.4945-.5016-1.0288-.1929-2.0653-.1544-3.0489-.0887-1.9592,.1525-3.846,.3265-5.3218-.2824-1.4278-.5853-2.4202-1.3612-3.0052-1.9873-.5918-.6358-.6996-1.1353-.6714-1.1361,.0415-.0179,.2046,.4273,.8153,.9934,.6024,.5581,1.6096,1.2698,2.9906,1.7852,1.3741,.5232,3.1799,.3322,5.1562,.1487,.9968-.079,2.0705-.1338,3.1791,.0657,.5507,.1011,1.1112,.2772,1.6307,.5389,.5162,.2551,.9971,.5538,1.5006,.767,.4921,.2138,.9975,.308,1.4353,.183l-.029,.01c.3926-.1826,.7241-.5557,.7527-.9604,.0329-.4138-.163-.8532-.4303-1.2284-.5286-.7723-1.2897-1.3356-1.9982-1.8696-1.4526-1.0348-2.8369-1.8569-3.9978-2.5319-1.1018-.6234-2.0248-1.1457-2.7619-1.5628-.651-.3657-1.0055-.5735-.9907-.604Z" style="fill:#ff9a6c;"></path></g><path d="M132.29376,231.29743l13.3332,.9663s15.6747,14.3567,18.6238,14.2561l.9561-4.102,5.67,5.4183s-3.6743,28.2049-8.0788,38.7216c-5.5308,13.2061-18.5071,38.0723-18.5071,38.0723,0,0,1.3344,3.1691,.3336,4.5034-1.0007,1.3344-6.1371,6.5049-9.9071,5.5042-3.7699-1.0008-15.779-3.1691-15.779-3.1691,0,0-30.18955,20.0152-31.85748,19.348s-3.00227-14.1774-2.83548-24.8521c.1668-10.6748,29.68916-56.5429,29.68916-56.5429l18.3591-38.1241Z" style="fill:#7E57C2;"></path><path d="M175.42426,279.67663s-.7305-29.5057-4.4481-31.7293c-3.2232-1.9279-9.3588,38.487-9.3588,38.487,0,0,14.7392-3.7016,13.8069-6.7577Z" style="fill:#7E57C2;"></path><g style="opacity:.3;"><path d="M103.45546,286.39843c.0597-.0996-.1638,2.1337,6.9939,1.0325,7.1577-1.1012,8.5341-1.0325,8.5341-1.0325,0,0,3.5789,6.6761,3.5789,7.089,0,.413-1.166,4.3264,.7247,4.2279,1.8906-.0985,6.1577-12.7621,6.1577-12.7621l-7.1577-4.5445-12.9389-4.949-5.8927,10.9387Z"></path></g><g><path d="M132.02176,286.03773c-.3006-1.4293-8.1559-10.054-10.7397-11.4587-.1313-.0715-.3022-.1483-.4939-.2279l11.2533-16.0107-17.7374-10.8755-13.0548,22.3782c-2.0395,3.6227-1.052,6.6585,.1698,8.5688,1.4672,2.2944,4.1968,3.4546,6.8981,3.1071l8.0386-1.0342,5.629,5.2584,.4866,6.0394s-.8367,2.4578-1.2287,3.3729c-.3919,.9151,.3295,1.5943,1.4779,1.8656,1.1484,.2715,3.7307-1.4377,3.7307-1.4377-1.0007,2.5317,1.6476,2.7001,1.6476,2.7001,0,0,2.0931-1.7985,3.1673-2.784,1.0741-.9854,1.0562-8.0326,.7556-9.4618Z" style="fill:#ffbf9d;"></path><path d="M121.06766,274.47283c-.0397,.1508-2.2739-.3469-5.0479-.8331-2.7848-.4907-5.0184-1.0396-4.9899-1.181,.0284-.1405,2.2964,.1775,5.0826,.6685,2.7985,.4909,4.9906,1.2188,4.9552,1.3456Z" style="fill:#ff9a6c;"></path><path d="M126.15606,289.10153c.07,.0308-.0805,.508-.2413,1.2945-.1749,.7836-.3163,1.8919-.64,3.116-.327,1.2276-.9165,2.2777-1.5346,2.8653-.6136,.5994-1.1441,.7419-1.1637,.6876-.0414-.0741,.4-.3263,.8914-.9355,.4994-.6005,.991-1.5841,1.3047-2.7551,.3117-1.1749,.5153-2.2925,.7867-3.0743,.2586-.7865,.5359-1.227,.5968-1.1985Z" style="fill:#ff9a6c;"></path><path d="M129.70326,289.10413c.1317-.0001,.0803,1.7704-.8784,3.6857-.9438,1.9236-2.3215,3.0364-2.4012,2.9316-.1122-.1093,1.0404-1.3337,1.9346-3.1628,.9137-1.8187,1.1901-3.4776,1.345-3.4545Z" style="fill:#ff9a6c;"></path></g><path d="M104.32086,260.49733c.0674-.6685,13.0594-27.1703,24.2911-29.1894,0,0,8.8978-1.7804,10.5037,5.8422,2.1282,10.101-11.8827,37.5139-11.8827,37.5139l-21.6491-13.3858-1.263-.7809Z" style="fill:#7E57C2;"></path><path d="M170.99016,264.82803c.0343,.0106-.0764,.4678-.3064,1.2866-.2277,.8194-.595,1.9942-1.0862,3.4327-.9722,2.8813-2.4878,6.8003-4.2871,11.0711-1.7998,4.2726-3.4894,8.1103-4.6977,10.8943-.5771,1.3165-1.0609,2.42-1.4433,3.2922-.3463,.7752-.5538,1.1978-.5872,1.1845-.0333-.0133,.1105-.4613,.3993-1.2605,.2867-.8001,.7294-1.9469,1.2914-3.3579,1.1223-2.8229,2.7595-6.6862,4.5573-10.9542,1.7974-4.2665,3.3625-8.152,4.4206-10.9936,.4959-1.348,.9116-2.478,1.2401-3.3711,.2887-.7979,.4649-1.2348,.4992-1.2241Z" style="fill:#263238;"></path><path d="M136.58016,404.74433c-.0131-.0121,.1173-.1788,.3768-.4858,.2993-.3463,.6799-.7867,1.149-1.3296,1.0432-1.2041,2.4771-2.859,4.2296-4.8816,.886-1.0357,1.8448-2.1799,2.8529-3.4235,.9934-1.2478,2.0948-2.5812,3.0118-4.0923,.9453-1.4929,1.127-3.4116,.8826-5.3183-.2239-1.9218-.7661-3.8822-1.3252-5.8798-2.4172-7.9689-4.1726-15.3148-6.0197-20.4385-.886-2.5761-1.6847-4.6319-2.2651-6.0405-.2768-.6609-.5013-1.197-.6779-1.6186-.1563-.3698-.2375-.5645-.2212-.573,.0156-.0082,.1286,.1717,.316,.5279,.1872,.3563,.4519,.8877,.769,1.583,.6394,1.388,1.4931,3.4298,2.4264,5.9984,1.9462,5.1238,3.7563,12.4507,6.1735,20.4193,.5609,2.0066,1.1061,3.9811,1.3311,5.9641,.2492,1.9539,.0455,4.0356-.9754,5.6186-.9683,1.5673-2.0758,2.8751-3.0916,4.123-1.0266,1.2367-2.0038,2.3695-2.9091,3.3915-1.8079,2.0464-3.3085,3.6676-4.3577,4.7767-.4989,.5162-.9036,.9351-1.2217,1.2643-.2846,.2841-.4409,.427-.4541,.4147Z" style="fill:#ff9a6c;"></path><path d="M172.43256,291.50983c-.1245-.082,.4715-1.1798,1.0894-2.577,.6249-1.3947,1.0417-2.572,1.1859-2.5344,.1349,.0316-.0653,1.3053-.7102,2.7461-.6388,1.4429-1.4514,2.4444-1.5651,2.3653Z" style="fill:#ff9a6c;"></path><path d="M192.67416,202.37803c-3.2217-1.9369-5.4858-5.4512-5.8098-9.2076l-4.4319,10.4584c2.0108,2.1989,4.6983,3.5194,7.7574,3.4311,.7763-.0224,1.153-.9483,.6425-1.5337-1.3119-1.5042-2.4059-3.1984-3.2336-5.0146,.9004,.8916,1.8198,1.797,2.9463,2.3774,.5509,.2839,1.164,.4803,1.7809,.5442,.6012,.0621,.8662-.7439,.3482-1.0552Z" style="fill:#263238;"></path><path d="M183.18156,191.86273c.0285-.0037,.1206,.3699,.1452,1.063,.0194,.6898-.0439,1.7091-.4227,2.9012-.377,1.1824-1.0742,2.5526-2.263,3.7244-1.1707,1.176-2.8159,2.1272-4.6967,2.5274-.4691,.1027-.9415,.1637-1.4089,.1871-.455,.023-.9723,.0534-1.4583-.2356-.2391-.15-.4252-.404-.4753-.6877-.0551-.287,.0174-.5586,.1203-.7751,.2104-.4386,.5203-.7559,.8156-1.0447,1.1463-1.1095,2.0104-2.274,2.6398-3.3061,1.2537-2.0786,1.6318-3.5686,1.7234-3.5356,.0303,.0086-.0328,.3852-.2361,1.0444-.2099,.6552-.5629,1.5966-1.1694,2.6769-.6025,1.0795-1.4586,2.3-2.6216,3.4629-.2776,.2767-.5472,.5765-.6991,.9085-.1637,.3287-.1002,.6545,.175,.8252,.2828,.174,.7185,.1833,1.1568,.1496,.4406-.0237,.8865-.0821,1.3297-.1792,1.7773-.3782,3.3424-1.2649,4.4694-2.3612,1.1432-1.0899,1.843-2.3762,2.2497-3.4993,.803-2.2868,.5116-3.8545,.6262-3.8461Z" style="fill:#455a64;"></path><path d="M137.40446,250.77783c.017,.0049-.0195,.1814-.1048,.5136-.0897,.3306-.2097,.8236-.4076,1.4445-.3819,1.2467-.9944,3.0326-1.8185,5.217-1.6586,4.3651-4.1663,10.3172-7.1702,16.8211l-.1216,.2633-.2496-.151c-.1572-.095-.3272-.1979-.4977-.301-6.2316-3.7706-11.8579-7.2094-15.9203-9.7226-1.9781-1.2368-3.6019-2.2521-4.7995-3.0009-.521-.3382-.9485-.6157-1.2938-.8398-.2933-.1972-.4436-.3086-.4357-.3247,.0079-.0162,.1735,.0636,.4818,.2304,.357,.2008,.7991,.4495,1.3377,.7525,1.2175,.7126,2.8685,1.6788,4.8796,2.8558,4.111,2.4323,9.7769,5.8262,16.0199,9.6038l.4985,.3017-.371,.1123c3.001-6.4904,5.5607-12.4132,7.3025-16.7336,.866-2.1623,1.5288-3.9239,1.968-5.1474,.2004-.5677,.3651-1.0339,.4983-1.4113,.1172-.3218,.187-.4887,.204-.4837Z" style="fill:#263238;"></path><path d="M75.8433,455.78573l8.13301-19.8496s18.75655,6.1517,17.97615,7.0139c-.7803,.8622-6.3232,10.723-10.7201,12.3781-4.39687,1.6551-15.47752,1.8753-15.38906,.4576Z" style="fill:#e0e0e0;"></path><path d="M169.55146,355.32983c.0494,.0566-.6504,.7439-1.7812,1.8491-1.1314,1.1047-2.6849,2.6375-4.35,4.3795-1.6643,1.744-3.1242,3.3665-4.1759,4.5474-1.052,1.1804-1.7063,1.9108-1.7651,1.8641-.0539-.0427,.4993-.8552,1.4832-2.1011,.9832-1.2459,2.4077-2.9166,4.0812-4.6701,1.6741-1.7515,3.2775-3.2512,4.4769-4.2906,1.1994-1.04,1.9858-1.6301,2.0309-1.5783Z" style="fill:#ff9a6c;"></path><path d="M144.75916,323.74173c.011,.0142-.1471,.1502-.4599,.3973-.3097,.2501-.7931,.5886-1.4473,.9707-1.299,.7762-3.3378,1.6721-5.9933,2.2416-2.6507,.5907-5.8907,.8129-9.4564,.7926-3.5628,.014-7.4884-.1734-11.5336,.3961-2.0158,.307-3.9556,.779-5.7838,1.3835-1.824,.6189-3.5336,1.3561-5.1301,2.1255-3.1796,1.5724-5.894,3.2814-8.1246,4.7818-2.2315,1.5018-3.9991,2.7775-5.2257,3.6519-.5786,.4075-1.0484,.7385-1.4187,.9993-.3275,.2243-.5047,.3352-.5155,.3209-.0108-.0144,.1453-.1533,.4525-.4048,.3552-.2814,.8057-.6384,1.3607-1.078,1.1902-.9249,2.9264-2.2473,5.139-3.7934,2.2116-1.5443,4.9208-3.2964,8.1199-4.908,1.6065-.789,3.3324-1.5446,5.1797-2.1787,1.8517-.6199,3.8228-1.1037,5.8728-1.4155,4.1135-.5779,8.0582-.3717,11.609-.3605,3.5551,.0463,6.753-.1363,9.3798-.6733,2.6293-.5162,4.655-1.3449,5.9693-2.0579,1.3193-.7113,1.975-1.2339,2.0062-1.1911Z" style="fill:#263238;"></path><path d="M113.28696,322.07823c.022-.0781,1.4261,.2748,3.7116,.7495,2.2848,.4763,5.461,1.037,9.001,1.3971,3.5418,.355,6.7663,.4404,9.1002,.4305,2.3342-.0083,3.7803-.0734,3.7862,.0075,.0026,.0359-.356,.0926-1.0079,.1645-.6517,.0758-1.5983,.1451-2.7701,.1961-2.3429,.1045-5.5936,.0772-9.1607-.2805-3.5653-.3625-6.7556-.9854-9.0303-1.5561-1.1379-.2843-2.0517-.5414-2.6751-.7459-.6245-.2009-.9646-.3282-.9549-.3627Z" style="fill:#263238;"></path><path d="M167.92876,220.33073c-1.1671-.5578-2.5522-1.2039-3.9371-1.8499-.3263-.1522-.6693-.3078-1.0289-.2898-.901,.0454-1.3915,1.1628-1.2212,2.0487,.1814,.9429,.8546,1.7385,1.6672,2.25,.9516,.5992,1.7713,.9365,2.852,.6255,1.0807-.3108,1.9261-2.6801,1.9261-2.6801l-.2581-.1044Z" style="fill:#ff9a6c;"></path><g style="opacity:.3;"><path d="M134.94766,339.23683c.093,.179,21.8255,24.268,21.8255,24.268l-14.0671-2.3559-7.7584-21.9121Z"></path></g><path d="M139.04746,351.37083c-.0672,.0252-.4546-.8274-1.0115-2.2306-.558-1.4028-1.2882-3.3551-2.0683-5.52-.7295-2.0762-1.3898-3.9551-1.9534-5.5591-.4881-1.4276-.7725-2.3102-.7725-2.3102,.2453-.1186,1.6589,3.3652,3.2159,7.6927,.7803,2.1658,1.4555,4.1373,1.9246,5.5713,.468,1.4344,.7326,2.3305,.6652,2.3559Z" style="fill:#455a64;"></path><g style="opacity:.3;"><path d="M120.34506,325.72633c-5.2265-.7968-10.551-1.1953-15.802-.5805s-10.4458,2.282-14.7599,5.338c-.6728,.4766-1.39541,1.1527-1.2718,1.9679,.10493,.692,.8246,1.1551,1.5224,1.2096,.6977,.0545,1.378-.201,2.0329-.4478,9.0538-3.4116,18.4323-5.9612,27.9673-7.6032"></path></g><path d="M139.33176,241.08193c-.1635,.0432-.4729-2.7686-2.437-5.4976-1.9203-2.7616-4.4684-3.9888-4.3732-4.1286,.0245-.0537,.6899,.1692,1.6416,.7768,.9499,.6024,2.154,1.6388,3.1567,3.051,.9974,1.4152,1.5739,2.8954,1.8258,3.9917,.2561,1.0997,.2448,1.8015,.1861,1.8067Z" style="fill:#263238;"></path><path d="M165.58706,223.52663c-.0036,.0546-.7902,.0159-1.8538-.6203-.5209-.3247-1.1004-.7931-1.5739-1.4821-.2315-.3458-.4306-.7633-.4916-1.2413-.0574-.4809,.0409-1.0049,.3565-1.4398,.3149-.4474,.8699-.6654,1.3445-.6675,.4863-.0153,.9272,.1322,1.2984,.2988,.7351,.3545,1.3283,.7046,1.8556,.9926,1.0374,.5829,1.6625,.9754,1.6298,1.0394s-.7171-.2125-1.7973-.7115c-.5373-.2407-1.1857-.5744-1.8776-.8796-.6567-.2978-1.5823-.39-2.0345,.2371-.4665,.637-.2819,1.5091,.1189,2.1109,.3978,.6247,.9157,1.0985,1.3755,1.4367,.9414,.6723,1.6753,.8428,1.6495,.9266Z" style="fill:#263238;"></path><g><path d="M127.11836,471.70803s-8.3181,3.1936-15.7069,3.1724c-7.3889-.0211-18.4319-1.7178-22.49061-2.2948-4.05883-.5769-15.73189,1.8115-16.69059-2.2325-1.4693-6.1978,4.69094-19.1829,4.69094-19.1829,0,0,3.66149,2.9295,7.68295,2.4433,4.0212-.4862,10.61611-2.2561,10.61611-2.2561,0,0,2.9663-5.5517,5.269-5.946,2.3025-.3942,2.0675,6.2507,2.0675,6.2507,0,0,6.3045,7.4477,10.3294,8.8396,4.025,1.3921,4.2672,2.571,8.8068,2.3182,4.5397-.253,6.846,1.2309,6.846,1.2309,0,0,2.3807,3.5378,1.4271,4.9584-.9535,1.4207-2.8477,2.6988-2.8477,2.6988Z" style="fill:#263238;"></path><path d="M130.01506,468.92803c-.8203,1.5749-2.8793,2.8402-2.8793,2.8402,0,0-8.3181,3.1936-15.707,3.1724-7.3889-.0211-18.4319-1.7179-22.49068-2.2948-4.0587-.577-15.54102,1.7614-16.69062-2.2327-.3258-1.0918-.3559-2.2355-.0979-3.4296,0,0,12.00489,2.2147,17.6714,1.654,5.6666-.5604,18.0791,2.4368,24.4841,1.865,6.4051-.572,13.4936-2.7181,13.4936-2.7181l2.0123-1.3065c.327,.9129,.6988,1.5329,.2041,2.4501Z" style="fill:#455a64;"></path><path d="M111.36046,459.50743c-.1129,.0024-.0888,1.0427-.6117,2.1642-.5034,1.1309-1.3043,1.7949-1.2319,1.8818,.0404,.0888,1.0213-.4933,1.575-1.7255,.5665-1.2259,.362-2.3482,.2686-2.3205Z" style="fill:#fff;"></path><path d="M107.39816,456.53073c-.1145-.0098-.1715,1.2404-.916,2.5294-.7226,1.3018-1.7652,1.9934-1.6982,2.0867,.0288,.0922,1.2442-.5017,2.0264-1.9009,.7974-1.39,.6817-2.7381,.5878-2.7152Z" style="fill:#fff;"></path><path d="M104.51486,453.61523c-.101-.0448-.5649,.8515-1.3289,1.8139-.7566,.9689-1.5187,1.6302-1.4514,1.7177,.0539,.0816,.9545-.4708,1.7477-1.4845,.7989-1.0085,1.1246-2.0138,1.0326-2.0471Z" style="fill:#fff;"></path><path d="M83.00353,463.92633c-.00212,.0504,.58567,.1262,1.54075,.1782,.95468,.0523,2.27693,.0734,3.7354,.0185,1.45898-.0559,2.77568-.1774,3.72368-.3021,.9485-.1244,1.5287-.2446,1.5226-.2948-.0134-.1085-2.3597,.1133-5.2606,.22-2.89983,.1139-5.25653,.071-5.26183,.1802Z" style="fill:#fff;"></path></g><path d="M131.44826,381.10163c.027,.0886-.7716,.2451-1.7644,.9903-.4882,.3735-1.0151,.8991-1.4255,1.5936-.2067,.3497-.3708,.7271-.5046,1.1577-.1436,.4263-.2722,.9291-.6421,1.3672-.3848,.4507-.9385,.6009-1.3752,.7124-.439,.1087-.8664,.2146-1.2843,.318-.7665,.1789-1.4934,.3485-2.1814,.509-1.2457,.2749-2.0251,.4101-2.0432,.3405s.7286-.3308,1.9506-.6969c.6791-.1946,1.3967-.4002,2.1533-.617,.4151-.113,.8395-.2284,1.2756-.3471,.4364-.1163,.8532-.2505,1.1108-.5596,.2688-.3105,.4033-.7527,.5517-1.1873,.1442-.4432,.3438-.8789,.5794-1.2472,.4732-.7462,1.0731-1.2849,1.6229-1.6444,1.1231-.7164,1.9781-.7394,1.9764-.6892Z" style="fill:#ff9a6c;"></path><path d="M127.17626,374.90933c.1462,.0839-1.5172,2.4204-2.1937,5.7986-.721,3.3703-.1221,6.1747-.2897,6.1935-.0596,.0136-.2909-.664-.4309-1.8094-.1421-1.1419-.1454-2.7575,.2106-4.4897,.3611-1.7305,1.0057-3.2117,1.5896-4.2033,.5833-.9956,1.0648-1.5258,1.1141-1.4897Z" style="fill:#ff9a6c;"></path></g></g></svg>
